<?xml version="1.0" encoding="iso-8859-1"?>
<!-- Generator: Adobe Illustrator 27.0.0, SVG Export Plug-In . SVG Version: 6.00 Build 0)  -->
<svg version="1.1" id="Layer_1" xmlns="http://www.w3.org/2000/svg" xmlns:xlink="http://www.w3.org/1999/xlink" x="0px" y="0px"
	 viewBox="0 0 500 500" style="enable-background:new 0 0 500 500;" xml:space="preserve">
<g id="watermark_1_">
	<g>
		<g id="watermark" style="opacity:0.61;">
			<g>
				<g>
					<g>
						<g>
							<polygon style="fill:#FFFFFF;" points="213.765,461.172 208.204,474.017 205.268,474.017 199.726,461.172 202.938,461.172 
								206.846,470.347 210.81,461.172 							"/>
						</g>
						<g>
							<path style="fill:#FFFFFF;" d="M223.507,469.741h-7.469c0.275,1.23,1.321,1.982,2.826,1.982c1.046,0,1.798-0.312,2.477-0.954
								l1.523,1.651c-0.917,1.046-2.294,1.597-4.074,1.597c-3.413,0-5.634-2.147-5.634-5.083c0-2.954,2.257-5.083,5.267-5.083
								c2.899,0,5.138,1.945,5.138,5.12C223.562,469.191,223.526,469.503,223.507,469.741 M216.002,468.071h4.863
								c-0.202-1.248-1.138-2.055-2.422-2.055C217.139,466.016,216.204,466.805,216.002,468.071"/>
						</g>
						<g>
							<path style="fill:#FFFFFF;" d="M224.735,468.934c0-2.973,2.294-5.083,5.505-5.083c2.074,0,3.707,0.899,4.423,2.514
								l-2.22,1.193c-0.532-0.936-1.321-1.358-2.221-1.358c-1.45,0-2.587,1.009-2.587,2.734c0,1.725,1.138,2.734,2.587,2.734
								c0.899,0,1.688-0.404,2.221-1.358l2.22,1.211c-0.716,1.578-2.349,2.495-4.423,2.495
								C227.029,474.017,224.735,471.907,224.735,468.934"/>
						</g>
						<g>
							<path style="fill:#FFFFFF;" d="M242.828,473.393c-0.587,0.422-1.45,0.624-2.331,0.624c-2.33,0-3.688-1.193-3.688-3.542
								v-4.055h-1.523v-2.202h1.523v-2.404h2.863v2.404h2.459v2.202h-2.459v4.019c0,0.844,0.458,1.303,1.229,1.303
								c0.422,0,0.844-0.128,1.156-0.367L242.828,473.393z"/>
						</g>
					</g>
					<g>
						<path style="fill:#FFFFFF;" d="M262.474,463.997v2.643c-0.238-0.018-0.422-0.037-0.642-0.037
							c-1.578,0-2.624,0.862-2.624,2.753v4.661h-2.863v-9.873h2.734v1.303C259.776,464.493,260.951,463.997,262.474,463.997"/>
					</g>
					<g>
						<path style="fill:#FFFFFF;" d="M263.299,472.53l1.009-2.239c1.083,0.789,2.697,1.339,4.239,1.339
							c1.762,0,2.477-0.587,2.477-1.376c0-2.404-7.469-0.752-7.469-5.524c0-2.184,1.762-4,5.413-4c1.615,0,3.267,0.385,4.459,1.138
							l-0.918,2.257c-1.193-0.679-2.422-1.009-3.56-1.009c-1.761,0-2.44,0.66-2.44,1.468c0,2.367,7.468,0.734,7.468,5.45
							c0,2.147-1.78,3.982-5.45,3.982C266.492,474.017,264.437,473.411,263.299,472.53"/>
					</g>
					<g>
						<path style="fill:#FFFFFF;" d="M285.428,469.741h-7.469c0.275,1.23,1.321,1.982,2.826,1.982c1.046,0,1.798-0.312,2.477-0.954
							l1.523,1.651c-0.918,1.046-2.294,1.597-4.074,1.597c-3.413,0-5.634-2.147-5.634-5.083c0-2.954,2.257-5.083,5.267-5.083
							c2.9,0,5.138,1.945,5.138,5.12C285.484,469.191,285.447,469.503,285.428,469.741 M277.923,468.071h4.863
							c-0.202-1.248-1.138-2.055-2.422-2.055C279.061,466.016,278.125,466.805,277.923,468.071"/>
					</g>
					<g>
						<path style="fill:#FFFFFF;" d="M297.007,469.741h-7.469c0.275,1.23,1.321,1.982,2.826,1.982c1.046,0,1.798-0.312,2.477-0.954
							l1.523,1.651c-0.918,1.046-2.294,1.597-4.074,1.597c-3.413,0-5.634-2.147-5.634-5.083c0-2.954,2.257-5.083,5.267-5.083
							c2.899,0,5.138,1.945,5.138,5.12C297.062,469.191,297.025,469.503,297.007,469.741 M289.501,468.071h4.863
							c-0.202-1.248-1.138-2.055-2.422-2.055C290.639,466.016,289.703,466.805,289.501,468.071"/>
					</g>
					<g>
						<polygon style="fill:#FFFFFF;" points="303.208,470.145 301.831,471.503 301.831,474.017 298.969,474.017 298.969,460.401 
							301.831,460.401 301.831,468.108 306.016,464.144 309.429,464.144 305.318,468.328 309.796,474.017 306.327,474.017 						"/>
					</g>
					<g>
						<path style="fill:#FFFFFF;" d="M256.601,475.359L256.601,475.359l-2.86-2.86c-0.435,0.508-0.953,0.943-1.534,1.284
							c-0.092,0.069-0.186,0.136-0.283,0.199l3.027,3.027c0.456,0.456,1.195,0.456,1.65,0
							C257.057,476.554,257.057,475.815,256.601,475.359"/>
					</g>
					<g>
						<path style="fill:#FFFFFF;" d="M249.984,463.244c0.221-0.173,0.495-0.281,0.797-0.281c0.042,0,0.083,0.002,0.124,0.006
							c-0.214-0.156-0.478-0.249-0.764-0.249c-0.395,0-0.744,0.18-0.981,0.458c-0.051,0-0.1,0.006-0.151,0.008
							c0.039-0.077,0.064-0.162,0.064-0.255c0-0.234-0.143-0.434-0.346-0.519c0.087,0.126,0.138,0.279,0.138,0.445
							c0,0.122-0.031,0.237-0.081,0.341c-2.811,0.201-5.03,2.539-5.03,5.4c0,2.993,2.426,5.42,5.42,5.42
							c2.993,0,5.42-2.426,5.42-5.42C254.595,465.879,252.593,463.635,249.984,463.244 M247.983,464.656
							c0.435,0,0.844,0.112,1.199,0.309c0.374-0.245,0.82-0.387,1.299-0.387c0.711,0,1.348,0.312,1.784,0.806
							c-0.435-0.379-1.004-0.61-1.627-0.61c-0.449,0-0.87,0.12-1.234,0.329c-0.079,0.046-0.156,0.096-0.229,0.15
							c-0.065-0.048-0.133-0.093-0.204-0.134c-0.369-0.219-0.8-0.344-1.26-0.344c-0.3,0-0.588,0.054-0.854,0.152
							C247.196,464.754,247.578,464.656,247.983,464.656 M251.772,469.098c0.115,0.305,0.181,0.634,0.181,0.979
							c0,1.534-1.244,2.777-2.778,2.777c-1.534,0-2.777-1.243-2.777-2.777c0-0.345,0.066-0.674,0.181-0.979
							c-0.62-0.382-1.035-1.064-1.035-1.846c0-1.197,0.971-2.168,2.168-2.168c0.565,0,1.078,0.218,1.463,0.572
							c0.386-0.354,0.899-0.572,1.464-0.572c1.197,0,2.168,0.971,2.168,2.168C252.807,468.034,252.392,468.716,251.772,469.098"/>
					</g>
					<g>
						<path style="fill:#FFFFFF;" d="M251.666,467.061c0,0.497-0.404,0.901-0.901,0.901c-0.497,0-0.901-0.404-0.901-0.901
							s0.404-0.901,0.901-0.901c0.101,0,0.197,0.017,0.287,0.047c-0.03,0.062-0.045,0.132-0.045,0.204
							c0,0.273,0.221,0.494,0.494,0.494c0.05,0,0.099-0.008,0.146-0.022C251.66,466.941,251.666,467,251.666,467.061"/>
					</g>
					<g>
						<path style="fill:#FFFFFF;" d="M248.255,467.061c0,0.376-0.305,0.681-0.681,0.681c-0.376,0-0.681-0.305-0.681-0.681
							s0.305-0.681,0.681-0.681c0.076,0,0.149,0.013,0.217,0.035c-0.023,0.047-0.034,0.1-0.034,0.155
							c0,0.206,0.167,0.374,0.374,0.374c0.038,0,0.075-0.006,0.11-0.017C248.25,466.97,248.255,467.015,248.255,467.061"/>
					</g>
					<g>
						<g>
							<g>
								<rect x="242.908" y="467.83" style="fill:#FFFFFF;" width="0.616" height="0.616"/>
							</g>
							<g>
								<rect x="254.827" y="467.83" style="fill:#FFFFFF;" width="0.616" height="0.616"/>
							</g>
							<g>
								<path style="fill:#FFFFFF;" d="M255.205,468.082h-0.14c0-3.248-2.642-5.89-5.89-5.89c-3.248,0-5.89,2.642-5.89,5.89h-0.14
									c0-1.611,0.627-3.125,1.766-4.264c1.139-1.139,2.653-1.766,4.264-1.766c1.611,0,3.125,0.627,4.264,1.766
									C254.578,464.957,255.205,466.471,255.205,468.082"/>
							</g>
						</g>
						<g>
							<rect x="248.868" y="461.814" style="fill:#FFFFFF;" width="0.616" height="0.616"/>
						</g>
						<g>
							<rect x="244.95" y="462.052" style="fill:#FFFFFF;" width="8.45" height="0.14"/>
						</g>
						<g>
							<path style="fill:#FFFFFF;" d="M245.174,462.15c0,0.108-0.088,0.196-0.196,0.196c-0.108,0-0.196-0.088-0.196-0.196
								c0-0.108,0.088-0.196,0.196-0.196C245.086,461.954,245.174,462.042,245.174,462.15"/>
						</g>
						<g>
							<path style="fill:#FFFFFF;" d="M253.596,462.15c0,0.108-0.088,0.196-0.196,0.196c-0.108,0-0.196-0.088-0.196-0.196
								c0-0.108,0.088-0.196,0.196-0.196C253.509,461.954,253.596,462.042,253.596,462.15"/>
						</g>
					</g>
				</g>
				<g>
					<path style="fill:#FFFFFF;" d="M314.356,473.409c0,1.559-2.364,1.559-2.364,0C311.993,471.851,314.356,471.851,314.356,473.409
						z"/>
				</g>
				<g>
					<g>
						<g>
							<path style="fill:#FFFFFF;" d="M161.739,466.549l1.772,6.088l1.855-6.088h2.215l-2.823,8.14h-2.33l-0.837-2.396l-0.722-2.708
								l-0.722,2.708l-0.837,2.396h-2.33l-2.839-8.14h2.231l1.855,6.088l1.756-6.088H161.739z"/>
						</g>
						<g>
							<path style="fill:#FFFFFF;" d="M176.713,466.549l1.772,6.088l1.855-6.088h2.215l-2.823,8.14h-2.33l-0.837-2.396l-0.722-2.708
								l-0.722,2.708l-0.837,2.396h-2.33l-2.839-8.14h2.231l1.855,6.088l1.756-6.088H176.713z"/>
						</g>
						<g>
							<path style="fill:#FFFFFF;" d="M191.687,466.549l1.772,6.088l1.855-6.088h2.215l-2.823,8.14h-2.33l-0.837-2.396l-0.722-2.708
								l-0.722,2.708l-0.837,2.396h-2.33l-2.839-8.14h2.231l1.855,6.088l1.756-6.088H191.687z"/>
						</g>
					</g>
					<g>
						<path style="fill:#FFFFFF;" d="M200.908,473.52c0,1.559-2.364,1.559-2.364,0C198.545,471.962,200.908,471.962,200.908,473.52z
							"/>
					</g>
					<g>
						<path style="fill:#FFFFFF;" d="M322.71,473.409c-0.935,0.919-1.919,1.28-3.117,1.28c-2.346,0-4.3-1.411-4.3-4.282
							s1.953-4.284,4.3-4.284c1.149,0,2.035,0.329,2.921,1.199l-1.264,1.329c-0.476-0.428-1.066-0.64-1.623-0.64
							c-1.346,0-2.33,0.985-2.33,2.396c0,1.542,1.05,2.362,2.297,2.362c0.64,0,1.28-0.18,1.772-0.672L322.71,473.409z"/>
					</g>
					<g>
						<path style="fill:#FFFFFF;" d="M331.805,470.472c0,2.33-1.591,4.217-4.217,4.217c-2.626,0-4.201-1.887-4.201-4.217
							c0-2.314,1.609-4.217,4.185-4.217C330.149,466.255,331.805,468.158,331.805,470.472z M325.389,470.472
							c0,1.231,0.739,2.38,2.199,2.38c1.46,0,2.199-1.149,2.199-2.38c0-1.215-0.854-2.396-2.199-2.396
							C326.144,468.077,325.389,469.258,325.389,470.472z"/>
					</g>
					<g>
						<path style="fill:#FFFFFF;" d="M338.572,474.689v-4.332c0-1.068-0.559-2.035-1.658-2.035c-1.082,0-1.722,0.967-1.722,2.035
							v4.332h-2.003v-8.107h1.855l0.148,0.985c0.426-0.82,1.362-1.116,2.133-1.116c0.969,0,1.937,0.394,2.396,1.51
							c0.723-1.149,1.658-1.478,2.708-1.478c2.297,0,3.43,1.412,3.43,3.84v4.365h-2.003v-4.365c0-1.066-0.442-1.97-1.526-1.97
							c-1.082,0-1.756,0.935-1.756,2.003v4.332H338.572z"/>
					</g>
				</g>
			</g>
		</g>
		<g style="opacity:0.61;">
			<g>
				<g>
					<path style="fill:#FFFFFF;" d="M345.988,431.299c-0.006-1.224-0.959-2.121-2.189-2.14c-0.924-0.014-0.832,0.12-0.834-0.867
						c-0.003-1.097-0.007-2.194,0.003-3.292c0.003-0.379-0.112-0.691-0.362-0.976c-2.342-2.668-4.678-5.342-7.019-8.011
						c-0.12-0.137-0.275-0.244-0.414-0.366c-6.214,0-12.427,0-18.641,0c-0.794,0.293-1.14,0.868-1.138,1.709
						c0.01,3.748,0.004,7.496,0.004,11.243c0,0.556-0.003,0.589-0.55,0.551c-1.497-0.102-2.516,0.986-2.497,2.492
						c0.044,3.476,0.013,6.953,0.014,10.429c0.001,1.58,0.867,2.443,2.45,2.449c0.582,0.002,0.582,0.002,0.582,0.6
						c0,2.219-0.001,4.438,0.001,6.657c0.001,1.192,0.58,1.771,1.768,1.771c8.013,0.001,16.027,0.001,24.04,0
						c1.168,0,1.755-0.583,1.757-1.745c0.002-2.256,0-4.512,0.001-6.768c0-0.512,0.002-0.511,0.52-0.515
						c0.271-0.002,0.541,0.008,0.809-0.058c0.996-0.246,1.69-1.044,1.694-2.069C346.003,438.696,346.005,434.997,345.988,431.299z
						 M317.537,417.162c5.337,0,10.674,0,16.01,0c0.548,0,0.554,0.007,0.554,0.561c0.001,2.243-0.001,4.486,0.001,6.73
						c0.001,0.811,0.249,1.059,1.06,1.059c1.91,0.001,3.821,0,5.731,0.001c0.458,0,0.479,0.021,0.481,0.483
						c0.003,0.887,0.002,1.775,0,2.662c-0.001,0.477-0.024,0.498-0.504,0.499c-3.895,0.001-7.79,0-11.684,0
						c-3.882,0-7.765,0-11.647,0c-0.55,0-0.552-0.001-0.552-0.561c-0.001-3.624-0.001-7.247,0-10.871
						C316.987,417.166,316.991,417.162,317.537,417.162z M340.822,451.579c-3.883,0.001-7.766,0-11.65,0c-3.871,0-7.742,0-11.613,0
						c-0.572,0-0.574-0.002-0.574-0.579c-0.001-1.997-0.001-3.994,0.001-5.991c0-0.464,0.023-0.486,0.478-0.487
						c7.803-0.001,15.607-0.001,23.41,0c0.478,0,0.499,0.02,0.499,0.503c0.002,1.997,0.001,3.994,0,5.991
						C341.375,451.574,341.37,451.579,340.822,451.579z"/>
				</g>
				<g>
					<g>
						<rect x="327.418" y="417.053" style="fill:#FFFFFF;" width="1.757" height="1.054"/>
					</g>
					<g>
						<rect x="325.662" y="418.107" style="fill:#FFFFFF;" width="1.757" height="1.054"/>
					</g>
					<g>
						<rect x="327.418" y="419.161" style="fill:#FFFFFF;" width="1.757" height="1.054"/>
					</g>
					<g>
						<rect x="325.662" y="420.215" style="fill:#FFFFFF;" width="1.757" height="1.054"/>
					</g>
					<g>
						<rect x="327.418" y="421.269" style="fill:#FFFFFF;" width="1.757" height="1.054"/>
					</g>
					<g>
						<rect x="325.662" y="422.323" style="fill:#FFFFFF;" width="1.757" height="1.054"/>
					</g>
					<g>
						<rect x="327.418" y="423.378" style="fill:#FFFFFF;" width="1.757" height="1.054"/>
					</g>
					<g>
						<rect x="325.662" y="424.432" style="fill:#FFFFFF;" width="1.757" height="1.054"/>
					</g>
					<g>
						<rect x="327.418" y="425.486" style="fill:#FFFFFF;" width="1.757" height="1.054"/>
					</g>
					<g>
						<rect x="325.662" y="426.54" style="fill:#FFFFFF;" width="1.757" height="1.054"/>
					</g>
					<g>
						<rect x="327.418" y="427.594" style="fill:#FFFFFF;" width="1.757" height="1.054"/>
					</g>
					<g>
						<rect x="325.662" y="428.648" style="fill:#FFFFFF;" width="1.757" height="1.054"/>
					</g>
				</g>
			</g>
			<g>
				<path style="fill:#FFFFFF;" d="M187.637,431.299c-0.006-1.224-0.959-2.121-2.189-2.14c-0.924-0.014-0.832,0.12-0.834-0.867
					c-0.003-1.097-0.007-2.194,0.003-3.292c0.003-0.379-0.112-0.691-0.362-0.976c-2.342-2.668-4.678-5.342-7.019-8.011
					c-0.12-0.137-0.275-0.244-0.414-0.366c-6.214,0-12.427,0-18.641,0c-0.794,0.293-1.14,0.868-1.138,1.709
					c0.01,3.748,0.004,7.496,0.004,11.243c0,0.556-0.003,0.589-0.55,0.551c-1.497-0.102-2.516,0.986-2.497,2.492
					c0.044,3.476,0.013,6.953,0.014,10.429c0.001,1.58,0.867,2.443,2.45,2.449c0.582,0.002,0.582,0.002,0.582,0.6
					c0,2.219-0.001,4.438,0.001,6.657c0.001,1.192,0.58,1.771,1.768,1.771c8.013,0.001,16.027,0.001,24.04,0
					c1.168,0,1.755-0.583,1.757-1.745c0.002-2.256,0-4.512,0.001-6.768c0-0.512,0.002-0.511,0.52-0.515
					c0.271-0.002,0.541,0.008,0.809-0.058c0.996-0.246,1.69-1.044,1.694-2.069C187.652,438.696,187.655,434.997,187.637,431.299z
					 M159.187,417.162c5.337,0,10.674,0,16.01,0c0.548,0,0.554,0.007,0.554,0.561c0.001,2.243-0.001,4.486,0.001,6.73
					c0.001,0.811,0.249,1.059,1.06,1.059c1.91,0.001,3.821,0,5.731,0.001c0.458,0,0.479,0.021,0.481,0.483
					c0.003,0.887,0.002,1.775,0,2.662c-0.001,0.477-0.024,0.498-0.504,0.499c-3.895,0.001-7.79,0-11.684,0
					c-3.882,0-7.765,0-11.647,0c-0.55,0-0.552-0.001-0.552-0.561c-0.001-3.624-0.001-7.247,0-10.871
					C158.636,417.166,158.64,417.162,159.187,417.162z M182.472,451.579c-3.883,0.001-7.766,0-11.65,0c-3.871,0-7.742,0-11.613,0
					c-0.572,0-0.574-0.002-0.574-0.579c-0.001-1.997-0.001-3.994,0.001-5.991c0-0.464,0.023-0.486,0.478-0.487
					c7.803-0.001,15.607-0.001,23.41,0c0.478,0,0.499,0.02,0.499,0.503c0.002,1.997,0.001,3.994,0,5.991
					C183.024,451.574,183.019,451.579,182.472,451.579z"/>
			</g>
			<g>
				<path style="fill:#FFFFFF;" d="M159.779,440.669v-7.897h2.779c0.375,0,0.726,0.061,1.053,0.182
					c0.327,0.121,0.612,0.292,0.855,0.513c0.242,0.221,0.434,0.483,0.573,0.789c0.14,0.305,0.21,0.642,0.21,1.009
					c0,0.375-0.07,0.715-0.21,1.02c-0.14,0.305-0.331,0.568-0.573,0.789c-0.243,0.221-0.528,0.392-0.855,0.513
					c-0.327,0.121-0.678,0.182-1.053,0.182h-1.29v2.901H159.779z M162.58,436.356c0.39,0,0.684-0.111,0.882-0.331
					c0.199-0.22,0.298-0.474,0.298-0.761c0-0.14-0.024-0.276-0.072-0.408c-0.048-0.132-0.121-0.248-0.221-0.347
					c-0.099-0.099-0.223-0.178-0.37-0.237c-0.147-0.059-0.32-0.089-0.518-0.089h-1.312v2.173H162.58z"/>
				<path style="fill:#FFFFFF;" d="M166.308,432.771h1.731l3.177,5.294h0.088l-0.088-1.522v-3.772h1.478v7.897h-1.566l-3.353-5.592
					h-0.088l0.088,1.522v4.07h-1.467V432.771z"/>
				<path style="fill:#FFFFFF;" d="M177.922,436.334h3.872c0.022,0.089,0.04,0.195,0.055,0.32c0.014,0.125,0.022,0.25,0.022,0.375
					c0,0.507-0.077,0.985-0.231,1.434c-0.154,0.449-0.397,0.849-0.728,1.202c-0.353,0.375-0.776,0.666-1.268,0.871
					c-0.493,0.206-1.055,0.309-1.688,0.309c-0.574,0-1.114-0.103-1.622-0.309c-0.507-0.206-0.948-0.492-1.323-0.86
					c-0.375-0.367-0.673-0.803-0.894-1.307c-0.221-0.504-0.331-1.053-0.331-1.649c0-0.595,0.11-1.145,0.331-1.649
					c0.221-0.504,0.518-0.939,0.894-1.307c0.375-0.367,0.816-0.654,1.323-0.86c0.507-0.206,1.048-0.309,1.622-0.309
					c0.64,0,1.211,0.11,1.715,0.331c0.504,0.221,0.935,0.526,1.296,0.915l-1.025,1.004c-0.258-0.272-0.544-0.48-0.861-0.623
					c-0.316-0.143-0.695-0.215-1.136-0.215c-0.361,0-0.703,0.065-1.026,0.193c-0.324,0.129-0.607,0.311-0.85,0.546
					c-0.242,0.235-0.436,0.52-0.579,0.855c-0.143,0.335-0.215,0.708-0.215,1.119c0,0.412,0.072,0.785,0.215,1.12
					c0.143,0.335,0.338,0.62,0.584,0.855c0.246,0.235,0.531,0.418,0.855,0.546c0.323,0.129,0.669,0.193,1.037,0.193
					c0.419,0,0.773-0.061,1.064-0.182c0.29-0.121,0.538-0.278,0.744-0.469c0.148-0.132,0.275-0.3,0.381-0.502
					c0.106-0.202,0.189-0.428,0.248-0.678h-2.482V436.334z"/>
			</g>
			<g>
				<path style="fill:#FFFFFF;" d="M224.019,431.299c-0.006-1.224-0.959-2.121-2.189-2.14c-0.924-0.014-0.832,0.12-0.834-0.867
					c-0.003-1.097-0.007-2.194,0.003-3.292c0.003-0.379-0.112-0.691-0.362-0.976c-2.342-2.668-4.678-5.342-7.019-8.011
					c-0.12-0.137-0.275-0.244-0.414-0.366c-6.214,0-12.427,0-18.641,0c-0.794,0.293-1.14,0.868-1.138,1.709
					c0.01,3.748,0.004,7.496,0.004,11.243c0,0.556-0.003,0.589-0.55,0.551c-1.497-0.102-2.516,0.986-2.497,2.492
					c0.044,3.476,0.013,6.953,0.014,10.429c0.001,1.58,0.867,2.443,2.45,2.449c0.582,0.002,0.582,0.002,0.582,0.6
					c0,2.219-0.001,4.438,0.001,6.657c0.001,1.192,0.58,1.771,1.768,1.771c8.013,0.001,16.027,0.001,24.04,0
					c1.168,0,1.755-0.583,1.757-1.745c0.002-2.256,0-4.512,0.001-6.768c0-0.512,0.002-0.511,0.52-0.515
					c0.271-0.002,0.541,0.008,0.809-0.058c0.997-0.246,1.69-1.044,1.694-2.069C224.034,438.696,224.036,434.997,224.019,431.299z
					 M195.568,417.162c5.337,0,10.674,0,16.01,0c0.548,0,0.554,0.007,0.554,0.561c0.001,2.243-0.001,4.486,0.001,6.73
					c0.001,0.811,0.249,1.059,1.06,1.059c1.91,0.001,3.821,0,5.731,0.001c0.458,0,0.479,0.021,0.481,0.483
					c0.003,0.887,0.002,1.775,0,2.662c-0.001,0.477-0.024,0.498-0.504,0.499c-3.895,0.001-7.79,0-11.684,0
					c-3.882,0-7.765,0-11.647,0c-0.55,0-0.552-0.001-0.552-0.561c-0.001-3.624-0.001-7.247,0-10.871
					C195.018,417.166,195.022,417.162,195.568,417.162z M218.854,451.579c-3.883,0.001-7.766,0-11.65,0c-3.871,0-7.742,0-11.613,0
					c-0.572,0-0.574-0.002-0.574-0.579c-0.001-1.997-0.001-3.994,0.001-5.991c0-0.464,0.023-0.486,0.478-0.487
					c7.803-0.001,15.607-0.001,23.41,0c0.478,0,0.499,0.02,0.499,0.503c0.002,1.997,0.001,3.994,0,5.991
					C219.406,451.574,219.401,451.579,218.854,451.579z"/>
			</g>
			<g>
				<path style="fill:#FFFFFF;" d="M205.111,432.771h1.699l2.967,7.897h-1.644l-0.651-1.886h-3.044l-0.651,1.886h-1.643
					L205.111,432.771z M206.997,437.415l-0.706-1.974l-0.287-0.96h-0.088l-0.287,0.96l-0.706,1.974H206.997z"/>
				<path style="fill:#FFFFFF;" d="M211.331,434.536c-0.125,0-0.245-0.024-0.359-0.072c-0.114-0.048-0.213-0.114-0.298-0.199
					c-0.084-0.084-0.151-0.182-0.198-0.292c-0.048-0.11-0.072-0.232-0.072-0.364s0.024-0.254,0.072-0.364
					c0.048-0.11,0.114-0.208,0.198-0.292c0.084-0.084,0.184-0.151,0.298-0.198c0.114-0.048,0.233-0.072,0.359-0.072
					c0.257,0,0.478,0.09,0.662,0.27c0.184,0.181,0.276,0.399,0.276,0.656s-0.092,0.476-0.276,0.656
					C211.809,434.446,211.589,434.536,211.331,434.536z M210.615,440.669v-5.404h1.445v5.404H210.615z"/>
			</g>
			<g>
				<path style="fill:#FFFFFF;" d="M261.044,431.299c-0.006-1.224-0.959-2.121-2.189-2.14c-0.924-0.014-0.832,0.12-0.834-0.867
					c-0.003-1.097-0.007-2.194,0.003-3.292c0.003-0.379-0.112-0.691-0.362-0.976c-2.342-2.668-4.678-5.342-7.019-8.011
					c-0.12-0.137-0.275-0.244-0.414-0.366c-6.214,0-12.427,0-18.641,0c-0.794,0.293-1.14,0.868-1.138,1.709
					c0.01,3.748,0.004,7.496,0.004,11.243c0,0.556-0.003,0.589-0.55,0.551c-1.497-0.102-2.516,0.986-2.497,2.492
					c0.044,3.476,0.013,6.953,0.014,10.429c0.001,1.58,0.867,2.443,2.45,2.449c0.582,0.002,0.582,0.002,0.582,0.6
					c0,2.219-0.001,4.438,0.001,6.657c0.001,1.192,0.58,1.771,1.768,1.771c8.013,0.001,16.027,0.001,24.04,0
					c1.168,0,1.755-0.583,1.757-1.745c0.002-2.256,0-4.512,0.001-6.768c0-0.512,0.002-0.511,0.52-0.515
					c0.271-0.002,0.541,0.008,0.809-0.058c0.996-0.246,1.69-1.044,1.694-2.069C261.059,438.696,261.061,434.997,261.044,431.299z
					 M232.593,417.162c5.337,0,10.674,0,16.01,0c0.548,0,0.554,0.007,0.554,0.561c0.001,2.243-0.001,4.486,0.001,6.73
					c0.001,0.811,0.249,1.059,1.06,1.059c1.91,0.001,3.821,0,5.731,0.001c0.458,0,0.479,0.021,0.481,0.483
					c0.003,0.887,0.002,1.775,0,2.662c-0.001,0.477-0.024,0.498-0.504,0.499c-3.895,0.001-7.79,0-11.684,0
					c-3.882,0-7.765,0-11.647,0c-0.55,0-0.552-0.001-0.552-0.561c-0.001-3.624-0.001-7.247,0-10.871
					C232.042,417.166,232.047,417.162,232.593,417.162z M255.878,451.579c-3.883,0.001-7.766,0-11.65,0c-3.871,0-7.742,0-11.613,0
					c-0.572,0-0.574-0.002-0.574-0.579c-0.001-1.997-0.001-3.994,0.001-5.991c0-0.464,0.023-0.486,0.478-0.487
					c7.803-0.001,15.607-0.001,23.41,0c0.478,0,0.499,0.02,0.499,0.503c0.002,1.997,0.001,3.994,0,5.991
					C256.431,451.574,256.426,451.579,255.878,451.579z"/>
			</g>
			<g>
				<path style="fill:#FFFFFF;" d="M236.361,440.845c-0.338,0-0.662-0.048-0.971-0.143c-0.309-0.095-0.592-0.239-0.849-0.43
					c-0.257-0.191-0.481-0.425-0.673-0.7c-0.191-0.276-0.342-0.597-0.452-0.965l1.401-0.551c0.103,0.397,0.283,0.726,0.54,0.987
					c0.257,0.261,0.596,0.392,1.015,0.392c0.154,0,0.303-0.02,0.447-0.061c0.143-0.04,0.272-0.099,0.386-0.176
					s0.204-0.175,0.27-0.292c0.066-0.118,0.099-0.254,0.099-0.408c0-0.147-0.026-0.279-0.077-0.397
					c-0.051-0.117-0.138-0.227-0.259-0.331c-0.121-0.103-0.28-0.202-0.475-0.298c-0.195-0.095-0.435-0.195-0.722-0.298l-0.485-0.176
					c-0.213-0.073-0.429-0.173-0.645-0.298c-0.217-0.125-0.413-0.276-0.59-0.452c-0.177-0.176-0.322-0.384-0.436-0.623
					c-0.114-0.239-0.171-0.509-0.171-0.81c0-0.309,0.06-0.597,0.182-0.866c0.121-0.268,0.294-0.503,0.518-0.706
					c0.224-0.202,0.492-0.36,0.805-0.474s0.66-0.171,1.042-0.171c0.397,0,0.74,0.053,1.031,0.16
					c0.291,0.107,0.537,0.243,0.739,0.408c0.202,0.165,0.366,0.348,0.491,0.546c0.125,0.199,0.217,0.386,0.276,0.563l-1.312,0.551
					c-0.074-0.221-0.208-0.419-0.402-0.596c-0.195-0.176-0.462-0.265-0.8-0.265c-0.324,0-0.592,0.075-0.805,0.226
					c-0.213,0.151-0.32,0.348-0.32,0.59c0,0.235,0.103,0.436,0.309,0.601c0.206,0.165,0.533,0.325,0.982,0.48l0.497,0.165
					c0.316,0.111,0.605,0.237,0.866,0.381c0.261,0.143,0.485,0.314,0.673,0.513c0.187,0.199,0.331,0.425,0.43,0.678
					c0.1,0.254,0.149,0.546,0.149,0.877c0,0.412-0.083,0.767-0.248,1.064c-0.165,0.298-0.377,0.542-0.634,0.734
					c-0.258,0.191-0.548,0.335-0.872,0.43C236.986,440.797,236.67,440.845,236.361,440.845z"/>
				<path style="fill:#FFFFFF;" d="M239.516,432.771h1.61l1.633,4.754l0.287,1.015h0.088l0.309-1.015l1.699-4.754h1.61l-2.879,7.897
					h-1.566L239.516,432.771z"/>
				<path style="fill:#FFFFFF;" d="M251.097,436.334h3.871c0.022,0.089,0.04,0.195,0.055,0.32c0.015,0.125,0.023,0.25,0.023,0.375
					c0,0.507-0.078,0.985-0.232,1.434c-0.154,0.449-0.397,0.849-0.728,1.202c-0.353,0.375-0.775,0.666-1.268,0.871
					c-0.493,0.206-1.055,0.309-1.688,0.309c-0.574,0-1.114-0.103-1.621-0.309c-0.507-0.206-0.949-0.492-1.324-0.86
					c-0.375-0.367-0.673-0.803-0.894-1.307c-0.22-0.504-0.331-1.053-0.331-1.649c0-0.595,0.11-1.145,0.331-1.649
					c0.221-0.504,0.518-0.939,0.894-1.307c0.375-0.367,0.816-0.654,1.324-0.86c0.507-0.206,1.047-0.309,1.621-0.309
					c0.64,0,1.211,0.11,1.715,0.331c0.504,0.221,0.936,0.526,1.296,0.915l-1.026,1.004c-0.257-0.272-0.544-0.48-0.861-0.623
					c-0.316-0.143-0.694-0.215-1.136-0.215c-0.36,0-0.702,0.065-1.026,0.193c-0.323,0.129-0.607,0.311-0.849,0.546
					c-0.243,0.235-0.436,0.52-0.579,0.855c-0.143,0.335-0.215,0.708-0.215,1.119c0,0.412,0.072,0.785,0.215,1.12
					c0.143,0.335,0.338,0.62,0.585,0.855c0.246,0.235,0.531,0.418,0.854,0.546c0.324,0.129,0.669,0.193,1.037,0.193
					c0.419,0,0.774-0.061,1.064-0.182c0.29-0.121,0.539-0.278,0.745-0.469c0.147-0.132,0.274-0.3,0.38-0.502
					c0.107-0.202,0.189-0.428,0.248-0.678h-2.482V436.334z"/>
			</g>
			<g>
				<path style="fill:#FFFFFF;" d="M297.3,431.299c-0.006-1.224-0.959-2.121-2.189-2.14c-0.924-0.014-0.832,0.12-0.834-0.867
					c-0.003-1.097-0.007-2.194,0.003-3.292c0.003-0.379-0.112-0.691-0.362-0.976c-2.342-2.668-4.678-5.342-7.019-8.011
					c-0.12-0.137-0.275-0.244-0.414-0.366c-6.214,0-12.427,0-18.641,0c-0.794,0.293-1.14,0.868-1.138,1.709
					c0.01,3.748,0.004,7.496,0.004,11.243c0,0.556-0.003,0.589-0.55,0.551c-1.497-0.102-2.516,0.986-2.497,2.492
					c0.044,3.476,0.013,6.953,0.014,10.429c0.001,1.58,0.867,2.443,2.45,2.449c0.582,0.002,0.582,0.002,0.582,0.6
					c0,2.219-0.001,4.438,0.001,6.657c0.001,1.192,0.58,1.771,1.768,1.771c8.013,0.001,16.027,0.001,24.04,0
					c1.168,0,1.755-0.583,1.757-1.745c0.002-2.256,0-4.512,0.001-6.768c0-0.512,0.002-0.511,0.52-0.515
					c0.271-0.002,0.541,0.008,0.809-0.058c0.996-0.246,1.69-1.044,1.694-2.069C297.315,438.696,297.318,434.997,297.3,431.299z
					 M268.85,417.162c5.337,0,10.674,0,16.01,0c0.548,0,0.554,0.007,0.554,0.561c0.001,2.243-0.001,4.486,0.001,6.73
					c0.001,0.811,0.249,1.059,1.06,1.059c1.91,0.001,3.821,0,5.731,0.001c0.458,0,0.479,0.021,0.481,0.483
					c0.003,0.887,0.002,1.775,0,2.662c-0.001,0.477-0.024,0.498-0.504,0.499c-3.895,0.001-7.79,0-11.684,0
					c-3.882,0-7.765,0-11.647,0c-0.55,0-0.552-0.001-0.552-0.561c-0.001-3.624-0.001-7.247,0-10.871
					C268.299,417.166,268.303,417.162,268.85,417.162z M292.135,451.579c-3.883,0.001-7.766,0-11.65,0c-3.871,0-7.742,0-11.613,0
					c-0.572,0-0.574-0.002-0.574-0.579c-0.001-1.997-0.001-3.994,0.001-5.991c0-0.464,0.023-0.486,0.478-0.487
					c7.803-0.001,15.607-0.001,23.41,0c0.478,0,0.499,0.02,0.499,0.503c0.001,1.997,0.001,3.994,0,5.991
					C292.687,451.574,292.682,451.579,292.135,451.579z"/>
			</g>
			<g>
				<path style="fill:#FFFFFF;" d="M272.966,434.183v1.831h3.165v1.412h-3.165v1.831h3.518v1.412h-5.007v-7.897h5.007v1.412H272.966
					z"/>
				<path style="fill:#FFFFFF;" d="M277.852,440.669v-7.897h2.779c0.375,0,0.726,0.061,1.053,0.182
					c0.327,0.121,0.612,0.292,0.855,0.513c0.243,0.221,0.434,0.483,0.574,0.789c0.14,0.305,0.209,0.642,0.209,1.009
					c0,0.375-0.07,0.715-0.209,1.02c-0.14,0.305-0.331,0.568-0.574,0.789c-0.243,0.221-0.528,0.392-0.855,0.513
					c-0.327,0.121-0.678,0.182-1.053,0.182h-1.29v2.901H277.852z M280.653,436.356c0.389,0,0.684-0.111,0.882-0.331
					c0.199-0.22,0.298-0.474,0.298-0.761c0-0.14-0.024-0.276-0.072-0.408c-0.048-0.132-0.121-0.248-0.221-0.347
					c-0.099-0.099-0.222-0.178-0.37-0.237c-0.147-0.059-0.32-0.089-0.518-0.089h-1.312v2.173H280.653z"/>
				<path style="fill:#FFFFFF;" d="M286.797,440.845c-0.338,0-0.662-0.048-0.971-0.143c-0.309-0.095-0.592-0.239-0.849-0.43
					c-0.257-0.191-0.482-0.425-0.673-0.7c-0.191-0.276-0.342-0.597-0.452-0.965l1.401-0.551c0.103,0.397,0.283,0.726,0.541,0.987
					c0.257,0.261,0.595,0.392,1.015,0.392c0.154,0,0.303-0.02,0.447-0.061c0.143-0.04,0.272-0.099,0.386-0.176
					c0.114-0.077,0.204-0.175,0.27-0.292c0.066-0.118,0.1-0.254,0.1-0.408c0-0.147-0.026-0.279-0.077-0.397
					c-0.051-0.117-0.138-0.227-0.259-0.331c-0.121-0.103-0.279-0.202-0.474-0.298c-0.195-0.095-0.436-0.195-0.723-0.298
					l-0.485-0.176c-0.213-0.073-0.428-0.173-0.645-0.298c-0.217-0.125-0.414-0.276-0.59-0.452c-0.176-0.176-0.322-0.384-0.436-0.623
					c-0.114-0.239-0.171-0.509-0.171-0.81c0-0.309,0.061-0.597,0.182-0.866c0.121-0.268,0.294-0.503,0.518-0.706
					c0.224-0.202,0.493-0.36,0.805-0.474c0.312-0.114,0.66-0.171,1.042-0.171c0.397,0,0.741,0.053,1.031,0.16
					c0.29,0.107,0.537,0.243,0.739,0.408c0.202,0.165,0.365,0.348,0.491,0.546c0.125,0.199,0.217,0.386,0.276,0.563l-1.312,0.551
					c-0.074-0.221-0.208-0.419-0.403-0.596c-0.195-0.176-0.462-0.265-0.799-0.265c-0.324,0-0.592,0.075-0.805,0.226
					c-0.213,0.151-0.32,0.348-0.32,0.59c0,0.235,0.103,0.436,0.309,0.601c0.206,0.165,0.533,0.325,0.982,0.48l0.496,0.165
					c0.316,0.111,0.605,0.237,0.866,0.381c0.261,0.143,0.485,0.314,0.673,0.513c0.187,0.199,0.331,0.425,0.43,0.678
					c0.099,0.254,0.149,0.546,0.149,0.877c0,0.412-0.083,0.767-0.248,1.064c-0.165,0.298-0.377,0.542-0.634,0.734
					c-0.258,0.191-0.548,0.335-0.872,0.43C287.422,440.797,287.105,440.845,286.797,440.845z"/>
			</g>
			<g>
				<path style="fill:#FFFFFF;" d="M321.394,439.168l4.004-4.985h-3.827v-1.412h5.559v1.5l-3.96,4.985h4.004v1.412h-5.779V439.168z"
					/>
				<path style="fill:#FFFFFF;" d="M328.409,432.771h1.489v7.897h-1.489V432.771z"/>
				<path style="fill:#FFFFFF;" d="M331.486,440.669v-7.897h2.779c0.375,0,0.726,0.061,1.053,0.182
					c0.327,0.121,0.612,0.292,0.855,0.513s0.434,0.483,0.574,0.789c0.14,0.305,0.209,0.642,0.209,1.009
					c0,0.375-0.07,0.715-0.209,1.02c-0.14,0.305-0.331,0.568-0.574,0.789c-0.243,0.221-0.528,0.392-0.855,0.513
					c-0.327,0.121-0.678,0.182-1.053,0.182h-1.29v2.901H331.486z M334.288,436.356c0.389,0,0.684-0.111,0.882-0.331
					c0.199-0.22,0.298-0.474,0.298-0.761c0-0.14-0.024-0.276-0.072-0.408c-0.048-0.132-0.121-0.248-0.221-0.347
					c-0.099-0.099-0.222-0.178-0.37-0.237c-0.147-0.059-0.32-0.089-0.518-0.089h-1.312v2.173H334.288z"/>
			</g>
		</g>
		<g style="opacity:0.61;">
			<path style="fill:#FFFFFF;" d="M300.133,433.27h9.067v2.242h-9.067V433.27z M300.133,437.136h9.067v2.243h-9.067V437.136z"/>
		</g>
	</g>
	<g style="opacity:0.61;">
		<path style="fill:#FFFFFF;" d="M156.756,478.878h1.607c1.263,0,2.114,0.812,2.114,1.974c0,1.161-0.851,1.973-2.114,1.973h-1.607
			V478.878z M158.34,482.464c1.049,0,1.725-0.665,1.725-1.612c0-0.947-0.677-1.613-1.725-1.613h-1.167v3.225H158.34z"/>
		<path style="fill:#FFFFFF;" d="M165.139,480.851c0-1.15,0.879-2.007,2.075-2.007c1.184,0,2.069,0.851,2.069,2.007
			c0,1.156-0.885,2.007-2.069,2.007C166.019,482.858,165.139,482.002,165.139,480.851z M168.866,480.851
			c0-0.942-0.705-1.635-1.652-1.635c-0.953,0-1.663,0.693-1.663,1.635c0,0.941,0.71,1.635,1.663,1.635
			C168.162,482.486,168.866,481.793,168.866,480.851z"/>
		<path style="fill:#FFFFFF;" d="M179.596,478.878l-1.331,3.947h-0.44l-1.156-3.366l-1.161,3.366h-0.434l-1.331-3.947h0.429
			l1.139,3.394l1.178-3.394h0.389l1.161,3.411l1.156-3.411H179.596z"/>
		<path style="fill:#FFFFFF;" d="M187.731,478.878v3.947h-0.344l-2.537-3.202v3.202h-0.417v-3.947h0.344l2.543,3.203v-3.203H187.731
			z"/>
		<path style="fill:#FFFFFF;" d="M193.093,478.878h0.417v3.586h2.21v0.361h-2.627V478.878z"/>
		<path style="fill:#FFFFFF;" d="M200.061,480.851c0-1.15,0.879-2.007,2.075-2.007c1.184,0,2.069,0.851,2.069,2.007
			c0,1.156-0.885,2.007-2.069,2.007C200.941,482.858,200.061,482.002,200.061,480.851z M203.788,480.851
			c0-0.942-0.705-1.635-1.652-1.635c-0.953,0-1.663,0.693-1.663,1.635c0,0.941,0.71,1.635,1.663,1.635
			C203.083,482.486,203.788,481.793,203.788,480.851z"/>
		<path style="fill:#FFFFFF;" d="M211.636,481.77h-2.199l-0.474,1.054h-0.434l1.804-3.947h0.412l1.804,3.947h-0.44L211.636,481.77z
			 M211.484,481.432l-0.947-2.12l-0.947,2.12H211.484z"/>
		<path style="fill:#FFFFFF;" d="M217.28,478.878h1.607c1.263,0,2.114,0.812,2.114,1.974c0,1.161-0.851,1.973-2.114,1.973h-1.607
			V478.878z M218.864,482.464c1.049,0,1.725-0.665,1.725-1.612c0-0.947-0.677-1.613-1.725-1.613h-1.167v3.225H218.864z"/>
		<path style="fill:#FFFFFF;" d="M234.041,481.77h-2.199l-0.474,1.054h-0.434l1.804-3.947h0.412l1.804,3.947h-0.44L234.041,481.77z
			 M233.889,481.432l-0.947-2.12l-0.947,2.12H233.889z"/>
		<path style="fill:#FFFFFF;" d="M239.685,478.878h0.417v3.586h2.21v0.361h-2.627V478.878z"/>
		<path style="fill:#FFFFFF;" d="M247.082,478.878h0.417v3.586h2.21v0.361h-2.627V478.878z"/>
		<path style="fill:#FFFFFF;" d="M260.449,479.239v1.551h2.041v0.361h-2.041v1.675h-0.417v-3.947h2.706v0.361H260.449z"/>
		<path style="fill:#FFFFFF;" d="M267.678,478.878h0.417v3.947h-0.417V478.878z"/>
		<path style="fill:#FFFFFF;" d="M273.456,478.878h0.417v3.586h2.21v0.361h-2.627V478.878z"/>
		<path style="fill:#FFFFFF;" d="M283.644,482.464v0.361h-2.791v-3.947h2.706v0.361h-2.289v1.404h2.041v0.355h-2.041v1.466H283.644z
			"/>
		<path style="fill:#FFFFFF;" d="M294.672,479.239v1.551h2.041v0.361h-2.041v1.675h-0.417v-3.947h2.706v0.361H294.672z"/>
		<path style="fill:#FFFFFF;" d="M301.5,480.851c0-1.15,0.879-2.007,2.075-2.007c1.184,0,2.069,0.851,2.069,2.007
			c0,1.156-0.885,2.007-2.069,2.007C302.379,482.858,301.5,482.002,301.5,480.851z M305.226,480.851
			c0-0.942-0.705-1.635-1.652-1.635c-0.953,0-1.663,0.693-1.663,1.635c0,0.941,0.71,1.635,1.663,1.635
			C304.522,482.486,305.226,481.793,305.226,480.851z"/>
		<path style="fill:#FFFFFF;" d="M313.351,482.825l-0.902-1.269c-0.102,0.011-0.203,0.017-0.316,0.017h-1.06v1.252h-0.417v-3.947
			h1.477c1.004,0,1.613,0.507,1.613,1.353c0,0.62-0.327,1.054-0.902,1.24l0.964,1.353H313.351z M313.328,480.231
			c0-0.632-0.417-0.992-1.207-0.992h-1.048v1.979h1.048C312.911,481.218,313.328,480.851,313.328,480.231z"/>
		<path style="fill:#FFFFFF;" d="M322.907,478.878v3.947h-0.4v-3.158l-1.551,2.656h-0.197l-1.551-2.639v3.14h-0.4v-3.947h0.344
			l1.714,2.926l1.697-2.926H322.907z"/>
		<path style="fill:#FFFFFF;" d="M330.744,481.77h-2.199l-0.473,1.054h-0.434l1.804-3.947h0.411l1.804,3.947h-0.44L330.744,481.77z
			 M330.592,481.432l-0.947-2.12l-0.947,2.12H330.592z"/>
		<path style="fill:#FFFFFF;" d="M336.957,479.239h-1.387v-0.361h3.192v0.361h-1.387v3.586h-0.417V479.239z"/>
		<path style="fill:#FFFFFF;" d="M343.063,482.346l0.164-0.321c0.282,0.276,0.784,0.479,1.302,0.479c0.739,0,1.06-0.31,1.06-0.699
			c0-1.083-2.43-0.417-2.43-1.877c0-0.581,0.451-1.083,1.455-1.083c0.446,0,0.908,0.13,1.224,0.35l-0.141,0.333
			c-0.338-0.22-0.733-0.327-1.083-0.327c-0.722,0-1.043,0.321-1.043,0.716c0,1.083,2.43,0.429,2.43,1.866
			c0,0.581-0.462,1.077-1.472,1.077C343.937,482.858,343.356,482.65,343.063,482.346z"/>
	</g>
</g>
<g>
</g>
<g>
	<path style="fill:#FCFCFC;" d="M24.143,199h326.036c8.793,3.885,16.943,9.342,23.649,16.254c3.742,3.991,7.08,8.534,8.786,13.783
		c1.722,5.531,1.196,11.518-0.44,17.002c-2.5,8.041-7.163,15.227-12.472,21.692c-10.19,12.545-22.847,22.715-35.207,33.008
		c4.292,0.023,8.587,0.129,12.879,0.02c1.894-0.093,3.795,0.083,5.686-0.083c1.603-0.841,2.951-2.103,4.461-3.103
		c12.508-8.935,25.036-18.055,35.558-29.342c4.782-5.176,9.16-10.803,12.369-17.098c2.898-5.59,4.679-11.813,4.64-18.141
		c1.54,4.59,1.759,9.581,0.676,14.297c-1.613,7.09-5.494,13.429-9.975,19.062c-10.962,13.555-25.146,23.914-38.922,34.392
		c37.998-0.007,75.993-0.013,113.992,0.003V301H24.143V199L24.143,199z"/>
	<path style="fill:#D82B23;" d="M350.179,199h21.506c0.977,0.838,2.245,1.139,3.414,1.609c1.722,0.702,3.491,1.308,5.153,2.149
		c0.255,0.076,0.768,0.229,1.027,0.305c0.086,0.096,0.262,0.295,0.348,0.394c0.457,0.119,0.917,0.238,1.384,0.358
		c0.096,0.116,0.285,0.344,0.381,0.46c0.222,0.043,0.669,0.132,0.894,0.176c0.5,0.265,1.007,0.51,1.53,0.752
		c0.056,0.086,0.166,0.255,0.222,0.341c0.265,0.05,0.795,0.146,1.056,0.195c0.073,0.099,0.219,0.295,0.291,0.394
		c3.143,1.507,6.107,3.381,8.942,5.405c4.438,3.481,8.657,7.776,10.332,13.3c0.007-0.222,0.013-0.447,0.026-0.669
		c1.143,4.199,1.961,8.627,1.156,12.965c-1.106,6.839-4.348,13.118-8.239,18.771c-6.882,9.822-15.807,18.009-25.139,25.457
		c-7.147,5.686-14.671,10.872-22.308,15.876c-1.076,0.715-2.149,1.441-3.295,2.037c-0.113,0.113-0.338,0.331-0.45,0.444
		c-0.192,0.043-0.576,0.126-0.768,0.169c-0.066,0.219-0.199,0.652-0.268,0.871c-4.292,0.109-8.587,0.003-12.879-0.02
		c12.359-10.293,25.017-20.463,35.207-33.008c5.309-6.464,9.972-13.651,12.472-21.692c1.636-5.484,2.162-11.472,0.44-17.002
		c-1.705-5.249-5.044-9.793-8.786-13.783C367.121,208.342,358.971,202.885,350.179,199L350.179,199z"/>
	<path style="fill:#07287F;" d="M371.685,199h104.172v101.745c-37.998-0.017-75.993-0.01-113.992-0.003
		c13.777-10.478,27.961-20.837,38.922-34.392c4.481-5.633,8.362-11.972,9.975-19.062c1.083-4.716,0.864-9.707-0.676-14.297
		c0.04,6.329-1.742,12.551-4.64,18.141c-3.209,6.296-7.587,11.922-12.369,17.098c-10.521,11.286-23.049,20.407-35.558,29.342
		c-1.51,1-2.858,2.262-4.461,3.103c-1.891,0.166-3.792-0.01-5.686,0.083c0.07-0.219,0.202-0.652,0.268-0.871
		c0.192-0.043,0.576-0.126,0.768-0.169c0.113-0.113,0.338-0.331,0.45-0.444c1.146-0.596,2.219-1.321,3.295-2.037
		c7.637-5.004,15.161-10.19,22.308-15.876c9.332-7.448,18.257-15.634,25.139-25.457c3.891-5.653,7.133-11.932,8.239-18.771
		c0.805-4.338-0.013-8.766-1.156-12.965c-0.013,0.222-0.02,0.447-0.026,0.669c-1.676-5.524-5.895-9.819-10.332-13.3
		c-2.835-2.023-5.799-3.898-8.942-5.405c-0.073-0.099-0.219-0.295-0.291-0.394c-0.262-0.05-0.792-0.146-1.056-0.195
		c-0.056-0.086-0.166-0.255-0.222-0.341c-0.523-0.242-1.03-0.487-1.53-0.752c-0.225-0.043-0.672-0.132-0.894-0.176
		c-0.096-0.116-0.285-0.344-0.381-0.46c-0.467-0.119-0.927-0.238-1.384-0.358c-0.086-0.099-0.262-0.298-0.348-0.394
		c-0.258-0.076-0.772-0.229-1.027-0.305c-1.662-0.841-3.431-1.447-5.153-2.149C373.93,200.139,372.662,199.838,371.685,199
		L371.685,199z"/>
	<path style="fill:#07287F;" d="M301.927,203.911c2.457-1.275,5.398-1.361,8.071-0.841c1.401,0.265,2.934,1.603,2.365,3.156
		c-0.417,0.957-0.351,1.987-0.272,3.004c0.593,0.924,1.195,1.845,1.782,2.775c-0.391,0.255-0.775,0.503-1.162,0.755
		c0.315,0.613,0.305,1.308,0.427,1.974c0.129,0.58,0.543,1.235,0.099,1.785c-1.037,1.239-3.07,0.523-4.087,1.735
		c1.874,1.053,3.457,2.633,4.292,4.636c1.537,3.51,2.123,7.342,3.424,10.939c3.656-1.182,7.309-2.378,10.955-3.596
		c0.765-1.563,2.712-2.345,4.345-1.722c1.656,0.57,2.378,2.732,1.603,4.252c-0.573,1.023-1.894,1.361-2.977,1.066
		c-0.931-0.238-1.888,0.033-2.682,0.523c-3.64,2.133-7.302,4.219-10.939,6.352c-1.232,0.719-2.802,1.199-4.173,0.586
		c-1.116-0.474-1.782-1.553-2.345-2.567c-1.119-2.073-2.252-4.14-3.381-6.206c-1.037,3-2.166,5.964-3.199,8.965
		c-0.47,1.06,0.205,2.129,1.023,2.779c2.961,2.437,6.809,3.616,9.534,6.375c1.609,1.666,1.749,4.126,1.894,6.312
		c0.374,5.259,0.752,10.515,1.172,15.767c-0.444,0.017-0.884,0.03-1.321,0.046c0.106,0.45,0.219,0.904,0.338,1.358
		c1.795,0.639,3.328,1.831,5.117,2.484c0.735,0.281,1.583,0.238,2.272,0.646c0.586,0.785-0.083,2.01-0.934,2.305
		c-2.12,0.484-4.179-0.467-6.272-0.626c-1.811-0.159-3.593,0.649-5.391,0.301c-0.947-0.166-1.427-1.229-1.169-2.096
		c0.298-1.285,0.924-2.712-0.046-3.881c-0.215,0.023-0.649,0.066-0.864,0.089c-0.358-1.47-0.785-2.931-1-4.431
		c-0.593-3.206-0.411-6.511-1.093-9.697c-0.202-1.09-1.272-1.6-2.169-2.027c-2.779-1.215-5.891-1.609-8.488-3.242
		c-3.63,4.173-7.196,8.471-11.591,11.876c-2.043,1.616-4.378,2.812-6.762,3.825c-2.411,1.03-4.673,2.361-6.935,3.673
		c-0.596-0.394-1.179-0.795-1.768-1.189c-3.11,2.11-7.034,2.898-9.693,5.67c-1.03,0.931-1.686,2.567-3.272,2.62
		c-1.212,0.172-1.772-1.298-1.59-2.282c0.036-1.444,1.06-2.55,2.116-3.411c1.725-1.437,2.398-3.64,3.345-5.587
		c1.139-2.007,3.699-2.199,5.742-2.514c-0.003-0.464-0.003-0.924,0.003-1.388c1.59-0.881,3.202-1.729,4.951-2.262
		c-0.209-0.639-0.57-1.205-1.003-1.709c1.169-0.368,2.384-0.54,3.587-0.762c-0.5-0.46-1.037-0.874-1.603-1.245
		c1.414-0.633,2.967-0.702,4.497-0.636c-0.639-0.805-1.619-1.109-2.576-1.341c1.318-0.871,2.951-0.596,4.438-0.589
		c-0.242-1.275-1.656-1.394-2.682-1.603c1.437-0.692,2.997-1.046,4.593-1.07c-0.798-0.593-1.768-0.818-2.722-1.013
		c1.013-1.205,2.663-1.288,4.116-1.301c-0.689-0.656-1.606-0.888-2.497-1.109c1.169-0.964,2.712-0.993,4.15-1.073
		c-0.699-0.503-1.56-0.623-2.391-0.719c0.199-0.344,0.401-0.689,0.606-1.033c-3.56-1.593-7.335-3.007-10.256-5.676
		c-1.265-1.076-2.09-2.722-1.729-4.401c0.782,1.056,1.735,2.01,2.971,2.517c4.676,2.093,9.365,4.272,14.366,5.471
		c2.855,0.699,5.895,0.454,8.66-0.51c2.265-0.914,3.553-3.222,4.232-5.451c0.53-2.02,0.603-4.295-0.351-6.203
		c-1.623-1.961-4.186-2.692-6.554-3.302c-0.53-0.229-1.285-0.159-1.603-0.719c0.381,0.063,1.139,0.189,1.517,0.252
		c0-0.242-0.007-0.722-0.01-0.964c-1.09-0.013-2.179,0.083-3.262-0.023c-0.53-0.099-0.669-0.762-0.98-1.106
		c1.411-0.129,2.831-0.093,4.252-0.089c-0.003-0.232-0.007-0.695-0.01-0.924c-1.401-0.003-2.795-0.01-4.193,0.013
		c-0.076-0.381-0.149-0.762-0.219-1.143c1.467-0.04,2.937-0.023,4.405-0.036c0.007-0.225,0.02-0.672,0.027-0.897
		c-1.53-0.013-3.06-0.01-4.587-0.013c-0.076-0.487-0.146-0.97-0.212-1.457c1.586-0.003,3.173-0.007,4.762-0.003
		c0.013-0.225,0.033-0.676,0.046-0.897c-1.974-0.03-3.951,0.04-5.911-0.215c-2.759,0.291-5.531,0.182-8.299,0.185
		c0.156-0.424,0.318-0.848,0.48-1.268c4.573-0.073,9.147,0,13.717-0.043c-0.007-0.229-0.017-0.686-0.023-0.911
		c-4.395-0.017-8.793,0.026-13.184-0.023c1.325-2.169,3.851-3.216,6.309-3.328c5.117-0.311,10.233-0.682,15.353-0.974
		c0.053-0.556,0.212-1.162-0.212-1.623c-1.046-1.513-2.11-3.153-2.163-5.057C298.864,206.882,300.086,204.832,301.927,203.911
		L301.927,203.911z"/>
	<path style="fill:#07287F;" d="M278.033,224.563c0.142-0.487,0.295-0.97,0.444-1.457c2.225,0,4.454-0.003,6.683,0.013
		c-0.235,0.48-0.467,0.964-0.695,1.447C282.322,224.566,280.176,224.573,278.033,224.563L278.033,224.563z"/>
	<path style="fill:#07287F;" d="M277.971,226.003c1.338-0.301,2.765-0.05,4.14-0.136c0.725,0.079,1.662-0.245,2.196,0.417
		c2.335,2.351,5.173,4.256,8.369,5.203c1.848,0.586,4.04,0.702,5.418,2.239c1.394,1.52,1.278,3.805,0.722,5.656
		c-0.407,1.871-1.504,3.643-3.226,4.554c-2.288,1.265-5.017,1.099-7.514,0.745c-5.62-0.974-10.859-3.394-15.923-5.928
		c-1.752-0.891-2.209-3.163-1.46-4.875C272.036,230.464,274.934,227.921,277.971,226.003L277.971,226.003z"/>
	<path style="fill:#FCFCFC;" d="M278.199,228.623c1.106,0.437,2.325,0.725,3.265,1.497c0.695,0.778-0.129,1.752-0.503,2.48
		c-0.98,1.447-1.706,3.136-3.004,4.332c-1.484,0.424-2.888-0.636-4.265-1.053C275.199,233.461,276.722,231.057,278.199,228.623
		L278.199,228.623z"/>
	<path style="fill:#07287F;" d="M279.265,230.55c0.116,0.073,0.348,0.222,0.464,0.298c-0.709,1.308-1.51,2.567-2.325,3.812
		c-0.248,0.45-0.686,0.725-1.149,0.914C277.113,233.816,278.272,232.229,279.265,230.55L279.265,230.55z"/>
	<path style="fill:#FCFCFC;" d="M282.455,232.044c0.291-0.493,0.583-0.984,0.881-1.47c1.335,0.49,2.656,1.017,3.981,1.527
		c-0.301,0.487-0.603,0.974-0.897,1.46c-0.358-0.142-0.712-0.285-1.06-0.427c-1.252,1.878-2.331,3.865-3.616,5.716
		c-0.613,0.083-1.242-0.414-1.845-0.58c1.199-1.944,2.424-3.871,3.613-5.822C283.157,232.312,282.806,232.18,282.455,232.044
		L282.455,232.044z"/>
	<path style="fill:#FCFCFC;" d="M288.25,232.501c1.099,0.45,2.305,0.745,3.236,1.513c0.616,0.56,0.123,1.384-0.199,1.957
		c-0.927,1.497-1.778,3.05-2.865,4.438c-0.348,0.52-1.047,0.662-1.613,0.484c-1.066-0.272-2.076-0.719-3.096-1.116
		C285.236,237.356,286.727,234.919,288.25,232.501L288.25,232.501z"/>
	<path style="fill:#07287F;" d="M288.065,236.396c0.474-0.719,0.815-1.603,1.623-2.023c-0.142,1.027-0.805,1.848-1.315,2.712
		c-0.56,0.881-1.05,1.861-1.951,2.444C286.664,238.346,287.495,237.429,288.065,236.396L288.065,236.396z"/>
	<path style="fill:#FCFCFC;" d="M292.936,235.624c1.109-1.126,3.206-0.825,4.014,0.513c0.348,1.182-0.616,2.179-1.129,3.149
		c-0.603-0.235-1.205-0.467-1.805-0.699c0.457-0.739,0.907-1.487,1.245-2.292c-0.854,0.007-1.152,0.868-1.566,1.441
		c-0.748,1.272-1.672,2.457-2.159,3.865c0.911-0.202,1.245-1.116,1.709-1.808c0.616,0.222,1.229,0.457,1.841,0.699
		c-0.623,0.914-1.209,2.066-2.381,2.331c-1.126,0.328-2.686-0.212-3.01-1.427c0.003-0.984,0.623-1.798,1.096-2.613
		C291.486,237.72,292.078,236.571,292.936,235.624L292.936,235.624z"/>
	<path style="fill:#07287F;" d="M100.024,236.674c1.894-0.232,3.686-1.013,5.58-1.196c11.783-0.01,23.566-0.01,35.349,0
		c-1.301,3.785-2.633,7.564-3.934,11.349c-3.358-0.01-6.719-0.142-10.077-0.116c-3.762,10.627-7.614,21.225-11.379,31.849
		c-5.126,0.01-10.25-0.023-15.376,0.017c-0.119-0.093-0.361-0.275-0.48-0.364c-1.255-0.056-2.5-0.258-3.689-0.659
		c-2.182-0.805-4.54-0.487-6.815-0.576c0.036-0.126,0.106-0.381,0.139-0.507c2.328-0.156,4.746,0.235,6.984-0.586
		c1.517-0.533,3.11-0.798,4.719-0.752c0.103-0.328,0.205-0.656,0.311-0.984c-1.364-0.026-2.726-0.202-4.017-0.652
		c-2.225-0.848-4.64-0.394-6.958-0.633c0.258-0.315,0.58-0.47,0.967-0.47c1.99-0.129,4.054,0.225,5.978-0.457
		c1.662-0.586,3.404-0.921,5.176-0.851c0.089-0.205,0.265-0.609,0.354-0.815c-1.447-0.05-2.845-0.424-4.219-0.841
		c-2.163-0.676-4.454-0.242-6.666-0.573c0.315-0.182,0.639-0.404,1.02-0.378c1.871-0.099,3.782,0.152,5.61-0.361
		c1.735-0.45,3.491-0.894,5.292-0.95c0.123-0.252,0.245-0.503,0.368-0.752c-1.427-0.195-2.831-0.536-4.229-0.881
		c-2.027-0.55-4.14-0.272-6.209-0.387c0.046-0.126,0.146-0.378,0.192-0.503c2.249-0.096,4.58,0.205,6.749-0.546
		c1.467-0.546,3.02-0.735,4.58-0.692c0.113-0.351,0.229-0.702,0.348-1.053c-1.742-0.109-3.351-0.821-5.044-1.156
		c-1.722-0.195-3.457-0.086-5.183-0.139c0.046-0.126,0.136-0.378,0.182-0.503c1.321-0.033,2.639-0.053,3.957-0.04
		c0.013-0.103,0.036-0.301,0.05-0.404c0.017,0.116,0.05,0.344,0.066,0.46c2.381-0.334,4.626-1.321,7.057-1.381
		c0.099-0.146,0.301-0.44,0.401-0.586c-1.086-0.106-2.166-0.315-3.176-0.738c-2.255-0.95-4.752-0.278-7.094-0.762
		c0.603-0.431,1.388-0.305,2.083-0.341c1.656,0.013,3.345,0.073,4.928-0.493c1.368-0.497,2.805-0.669,4.242-0.805
		c0.093-0.169,0.272-0.51,0.364-0.679c-1.911-0.245-3.6-1.404-5.55-1.398c-1.46-0.07-2.928-0.046-4.378-0.238
		c0.103-0.096,0.308-0.285,0.411-0.378c2.219-0.262,4.567,0.192,6.676-0.725c1.288-0.546,2.676-0.752,4.063-0.818
		c0.083-0.219,0.252-0.656,0.334-0.874c-1.494-0.142-2.884-0.699-4.315-1.103c-1.855-0.301-3.759-0.013-5.61-0.378
		c0.331-0.232,0.705-0.384,1.116-0.358c2.153-0.123,4.391,0.126,6.448-0.676c1.212-0.523,2.57-0.467,3.799-0.914
		c-3.394-0.278-6.812-0.066-10.213-0.275c-1.54-0.457-3.024-1.166-4.64-1.318c-1.576-0.139-3.166-0.02-4.739-0.199
		c1.066-0.772,2.547-0.255,3.779-0.467c2.143,0.103,4.08-0.924,6.166-1.186c0.136-0.354,0.272-0.705,0.407-1.056
		c-0.941-0.305-1.868-0.659-2.822-0.921c-1.825-0.447-3.729-0.109-5.57-0.364c-0.103-0.076-0.305-0.225-0.404-0.301
		c1.845-0.215,3.712-0.007,5.554-0.242c1.427-0.298,2.805-0.818,4.246-1.066c0.139-0.384,0.275-0.768,0.411-1.156
		c-1.222-0.348-2.414-0.858-3.693-0.967c-1.662-0.152-3.338-0.096-4.997-0.281c0.301-0.189,0.573-0.517,0.984-0.417
		C97.331,236.657,98.679,236.776,100.024,236.674L100.024,236.674z"/>
	<path style="fill:#07287F;" d="M42.013,236.869c2.961,0.288,5.703-1.166,8.634-1.249c7.276-0.003,14.548,0.013,21.824-0.007
		c2.951-0.02,5.971,0.229,8.726,1.354c2.686,1.182,5.355,2.831,6.938,5.375c0.874,1.772,1.676,3.666,1.712,5.673
		c0.03,5.372-1.484,10.611-3.534,15.529c-1.874,4.467-5.312,8.183-9.379,10.76c-4.908,2.941-10.68,4.219-16.366,4.219
		c-8.273,0.086-16.549,0.007-24.824,0.04c-1.805,0.04-3.577-0.361-5.285-0.911c-1.937-0.619-4.004-0.139-5.978-0.467l-0.334-0.368
		c2.331-0.281,4.759,0.242,7.017-0.563c1.441-0.46,2.914-0.841,4.438-0.831c0.076-0.245,0.229-0.735,0.308-0.98
		c-1.374-0.03-2.706-0.358-4.004-0.785c-2.053-0.722-4.265-0.156-6.372-0.536c0.046-0.089,0.132-0.268,0.179-0.361
		c2.225-0.242,4.54,0.215,6.696-0.56c1.487-0.503,3.027-0.808,4.597-0.864c0.086-0.189,0.258-0.563,0.341-0.752
		c-1.278-0.166-2.53-0.477-3.769-0.835c-2.149-0.672-4.428-0.291-6.633-0.56c0.354-0.523,0.987-0.384,1.51-0.421
		c1.633-0.07,3.302,0.152,4.895-0.305c1.666-0.447,3.345-0.858,5.067-1.02c0.103-0.262,0.202-0.517,0.305-0.775
		c-1.308-0.242-2.61-0.517-3.898-0.838c-1.97-0.517-4.024-0.281-6.037-0.368l0.06-0.536c1.904-0.056,3.838,0.099,5.719-0.255
		c1.696-0.5,3.404-1.086,5.203-0.974c0.129-0.354,0.262-0.709,0.391-1.06c-1.527-0.166-2.971-0.712-4.454-1.076
		c-1.835-0.305-3.709-0.119-5.56-0.209c0.06-0.109,0.176-0.328,0.235-0.437c2.156-0.281,4.405,0.195,6.504-0.56
		c1.398-0.497,2.868-0.699,4.335-0.864c0.089-0.149,0.268-0.447,0.358-0.596c-1.477-0.106-2.818-0.745-4.226-1.119
		c-1.904-0.252-3.838-0.106-5.749-0.285c0.132-0.093,0.394-0.285,0.523-0.378c2.073-0.189,4.226,0.209,6.233-0.507
		c1.368-0.44,2.779-0.775,4.229-0.785c0.093-0.245,0.189-0.493,0.281-0.738c-1.54-0.308-2.954-1.04-4.497-1.328
		c-1.715-0.159-3.441-0.119-5.16-0.255c0.046-0.116,0.136-0.344,0.179-0.46c2.245-0.229,4.607,0.232,6.739-0.692
		c1.278-0.533,2.653-0.739,4.027-0.831c0.066-0.219,0.199-0.659,0.265-0.881c-1.457-0.159-2.828-0.679-4.229-1.076
		c-1.861-0.301-3.765-0.05-5.63-0.351c0.132-0.083,0.397-0.242,0.53-0.325c2.308-0.262,4.726,0.126,6.948-0.725
		c1.109-0.447,2.295-0.589,3.467-0.758c0.106-0.169,0.311-0.51,0.417-0.682c-1.166-0.225-2.312-0.53-3.438-0.904
		c-2.063-0.666-4.256-0.232-6.372-0.536c0.404-0.464,1.04-0.387,1.586-0.417c1.782-0.06,3.62,0.093,5.335-0.5
		c1.268-0.454,2.593-0.709,3.938-0.775c0.109-0.311,0.215-0.619,0.325-0.927c-1.798-0.235-3.431-1.202-5.262-1.215
		c-1.47-0.089-2.951,0.003-4.414-0.199c1.119-0.679,2.517-0.245,3.755-0.381c2.434,0.136,4.626-1.152,7.027-1.292
		c0.076-0.219,0.222-0.656,0.298-0.874c-1.282-0.252-2.507-0.699-3.759-1.04c-1.911-0.295-3.858-0.132-5.772-0.411
		C39.923,236.521,41.079,236.982,42.013,236.869L42.013,236.869z"/>
	<path style="fill:#07287F;" d="M148.98,236.866c2.961,0.268,5.689-1.252,8.634-1.245c7.504,0.003,15.009,0,22.516,0.003
		c3.769-0.027,7.633,0.775,10.803,2.901c1.841,1.199,3.633,2.719,4.461,4.815c0.623,1.487,1.239,3.027,1.225,4.663
		c-0.01,3.587-0.603,7.166-1.725,10.571c-1.139,3.596-2.48,7.246-4.931,10.177c-2.957,3.749-7.054,6.531-11.584,8.011
		c-3.792,1.341-7.832,1.782-11.833,1.775c-6.726,0.053-13.449,0.007-20.175,0.023c-2.795-0.036-5.666,0.242-8.362-0.676
		c-2.189-0.838-4.564-0.507-6.849-0.609c0.017-0.126,0.053-0.378,0.073-0.503c1.712-0.083,3.431,0.027,5.14-0.132
		c2-0.397,3.908-1.272,5.988-1.215c0.109-0.325,0.222-0.646,0.334-0.967c-1.348-0.073-2.669-0.358-3.948-0.778
		c-2.116-0.705-4.371-0.248-6.551-0.513c0.222-0.308,0.513-0.464,0.878-0.46c1.894-0.139,3.848,0.212,5.689-0.384
		c1.639-0.5,3.302-1.01,5.037-0.941c0.073-0.205,0.219-0.609,0.291-0.811c-1.732-0.139-3.355-0.801-5.054-1.113
		c-1.772-0.248-3.577-0.046-5.352-0.281c0.136-0.086,0.414-0.255,0.553-0.338c1.984-0.222,4.027,0.159,5.974-0.397
		c1.643-0.457,3.312-0.821,5.011-1.007c0.066-0.192,0.202-0.573,0.272-0.762c-1.331-0.255-2.656-0.54-3.971-0.861
		c-2.043-0.536-4.173-0.179-6.249-0.421c0.123-0.096,0.364-0.295,0.487-0.391c2.123-0.281,4.338,0.179,6.398-0.56
		c1.398-0.5,2.861-0.808,4.355-0.722c0.142-0.354,0.288-0.709,0.434-1.063c-2.331-0.291-4.511-1.447-6.905-1.262
		c-1.053-0.172-2.394,0.391-3.222-0.46c2.278-0.275,4.64,0.179,6.852-0.58c1.368-0.493,2.812-0.669,4.242-0.868
		c0.119-0.142,0.358-0.427,0.477-0.57c-1.54-0.119-2.928-0.821-4.411-1.162c-1.619-0.202-3.262-0.083-4.888-0.205
		c-0.295,0-0.543-0.179-0.775-0.334c2.216-0.374,4.527,0.162,6.693-0.566c1.424-0.457,2.888-0.791,4.388-0.838
		c0.063-0.189,0.185-0.563,0.245-0.752c-1.818-0.272-3.438-1.345-5.299-1.364c-1.321-0.056-2.639-0.103-3.957-0.136l0.063-0.586
		c1.08-0.007,2.163-0.007,3.245-0.03c2.523,0.129,4.689-1.557,7.229-1.414c0.07-0.222,0.205-0.662,0.275-0.881
		c-1.242-0.159-2.451-0.493-3.623-0.917c-2.047-0.705-4.325,0.086-6.332-0.715c1.553-0.338,3.156-0.172,4.736-0.288
		c2.209-0.023,4.159-1.351,6.392-1.258c0.06-0.192,0.182-0.57,0.245-0.758c-1.911-0.268-3.673-1.242-5.623-1.262
		c-1.388-0.073-2.792,0.053-4.159-0.238c0.354-0.215,0.752-0.338,1.169-0.321c2.004-0.106,4.077,0.109,5.997-0.589
		c1.212-0.411,2.477-0.659,3.759-0.722c0.073-0.229,0.222-0.686,0.295-0.914c-1.739-0.238-3.322-1.146-5.09-1.209
		c-1.437-0.073-2.878-0.056-4.318-0.116l-0.017-0.411c2.225-0.169,4.524,0.222,6.676-0.503c1.249-0.417,2.553-0.616,3.835-0.891
		c0.103-0.205,0.301-0.613,0.401-0.818c-1.351-0.238-2.626-0.755-3.954-1.076c-1.878-0.242-3.785-0.113-5.656-0.411
		C146.795,236.558,147.977,236.962,148.98,236.866L148.98,236.866z"/>
	<path style="fill:#07287F;" d="M226.454,236.853c7.19-0.778,14.482-1.967,21.701-0.821c3.421,0.55,6.994,1.782,9.233,4.577
		c2.543,3.096,2.934,7.378,2.464,11.22c-4.898,0.027-9.793-0.033-14.687,0.033c0.053-1.391,0.04-2.924-0.854-4.073
		c-1.328-1.841-3.729-2.467-5.898-2.451c-4.716-0.089-9.382,2.391-11.968,6.332c-1.802,2.659-2.944,5.709-3.789,8.789
		c-0.454,1.964-0.934,4.116-0.116,6.05c0.811,1.752,2.739,2.643,4.57,2.865c3.09,0.341,6.382-0.076,9.067-1.729
		c2.159-1.318,3.845-3.269,5.312-5.302c4.881,0.013,9.763-0.017,14.644,0.017c-1.431,2.292-2.931,4.544-4.679,6.604
		c-4.795,5.547-11.747,9.097-19.006,9.968c-4.269,0.517-8.604,0.51-12.866-0.036c-1.57-0.192-3.09-0.709-4.686-0.676
		c-2.265-0.003-4.352-1.099-6.61-1.126c-1.596-0.043-3.192-0.013-4.789-0.083c0.162-0.338,0.424-0.493,0.791-0.47
		c2.325-0.182,4.722,0.229,6.984-0.49c-0.705-0.553-1.308-1.225-2.007-1.782c-0.772-0.086-1.553-0.05-2.322-0.119
		c-2.037-0.146-3.895-1.265-5.968-1.123c-1.242-0.113-2.606,0.252-3.765-0.308c2.186-0.629,4.524,0.076,6.693-0.636
		c1.146-0.351,2.298-0.682,3.477-0.914c-0.156-0.291-0.305-0.58-0.454-0.871c-1.451,0.05-2.875-0.232-4.246-0.669
		c-2.262-0.775-4.676-0.437-7.011-0.659c0.656-0.738,1.782-0.338,2.656-0.45c2.689,0.209,5.249-0.735,7.842-1.268
		c0.013-0.195,0.04-0.583,0.053-0.778c-1.662-0.079-3.272-0.503-4.878-0.897c-2.037-0.536-4.156-0.152-6.223-0.424
		c0.229-0.295,0.523-0.437,0.888-0.431c2.076-0.126,4.232,0.169,6.226-0.576c1.278-0.474,2.626-0.672,3.987-0.699
		c0.076-0.252,0.232-0.758,0.311-1.013c-1.851-0.023-3.596-0.669-5.372-1.099c-1.874-0.301-3.785-0.119-5.673-0.215
		c0.05-0.126,0.156-0.374,0.205-0.5c2.418-0.079,4.911,0.185,7.233-0.649c1.335-0.477,2.752-0.523,4.14-0.705
		c0.106-0.132,0.318-0.404,0.424-0.536c-1.298-0.189-2.586-0.427-3.812-0.907c-2.272-0.825-4.752-0.079-7.054-0.715
		c2.023-0.646,4.226,0.043,6.282-0.503c1.841-0.493,3.676-1.076,5.61-1.02c0.119-0.262,0.242-0.527,0.364-0.785
		c-1.46-0.348-2.841-0.97-4.315-1.255c-1.898-0.215-3.818-0.063-5.709-0.321c0.123-0.093,0.368-0.285,0.49-0.378
		c2.295-0.272,4.706,0.192,6.908-0.692c1.398-0.563,2.891-0.791,4.395-0.835c0.192-0.308,0.391-0.619,0.589-0.927
		c-1.917-0.192-3.666-1.202-5.607-1.202c-1.547-0.04-3.093-0.026-4.633-0.149c0.195-0.172,0.361-0.46,0.669-0.424
		c2.398-0.199,4.885,0.152,7.203-0.649c1.49-0.52,3.06-0.768,4.64-0.729c0.262-0.291,0.523-0.586,0.785-0.881
		c-1.669-0.381-3.305-0.987-5.034-1.017c-1.639-0.05-3.275-0.046-4.911-0.096c0-0.103-0.003-0.311-0.007-0.414
		c2.881-0.172,5.845,0.152,8.64-0.712c1.407-0.404,2.871-0.57,4.332-0.639c0.695-0.536,1.398-1.07,2.09-1.616
		c-3.606-1.07-7.402-0.5-11.094-0.798c0.149-0.089,0.454-0.275,0.606-0.368c2.391-0.136,4.795,0.003,7.19-0.109
		c2.03-0.172,4.001-0.748,6.024-0.967c2.023-0.162,3.722-1.398,5.636-1.964c-3.914-0.219-7.839-0.119-11.75-0.368
		c0.325-0.291,0.725-0.447,1.172-0.397C220.278,236.856,223.367,236.932,226.454,236.853L226.454,236.853z"/>
	<path style="fill:#FCFCFC;" d="M61.704,246.486c4.054,0.126,8.418-0.454,12.144,1.507c-1.54,0.391-3.053,0.931-4.64,1.096
		c-1.759,0.142-3.527,0.036-5.282,0.182c-0.149,0.103-0.444,0.305-0.593,0.404c2.159,0.222,4.352-0.026,6.494,0.328
		c1.805,0.54,3.623,1.103,5.527,1.106c-0.003,0.202-0.013,0.613-0.02,0.818c-1.358,0.106-2.709,0.348-3.974,0.878
		c-2.053,0.871-4.322,0.417-6.474,0.676c-0.126,0.093-0.371,0.278-0.497,0.371c2.265,0.397,4.656-0.109,6.845,0.729
		c1.046,0.387,2.11,0.742,3.219,0.901c-0.083,0.242-0.169,0.487-0.252,0.732c-1.596-0.007-3.149,0.361-4.656,0.854
		c-2.172,0.748-4.511,0.123-6.719,0.616c2.037,0.755,4.312-0.03,6.378,0.649c1.255,0.434,2.514,0.904,3.861,0.95
		c-0.113,0.176-0.341,0.527-0.454,0.705c-1.609-0.05-3.189,0.282-4.709,0.778c-2.149,0.725-4.438,0.334-6.653,0.54
		c0.007,0.123,0.027,0.364,0.036,0.487c1.308,0.007,2.616-0.007,3.928,0.02c1.921,0.02,3.676,0.894,5.544,1.225
		c-0.368,0.354-0.729,0.719-1.09,1.086c-1.616-0.07-3.232,0.129-4.752,0.689c-2.103,0.785-4.375,0.334-6.551,0.606
		c-0.106,0.103-0.315,0.311-0.421,0.414c2.543,0.149,5.156-0.139,7.604,0.752c-2.033,0.729-4.216,0.513-6.329,0.692
		c-1.742,0.156-3.491,0.083-5.239,0.103C56.558,260.415,59.088,253.434,61.704,246.486L61.704,246.486z"/>
	<path style="fill:#FCFCFC;" d="M168.44,246.509c4.05,0.043,8.372-0.427,12.127,1.417c-3.219,1.388-6.746,1.258-10.17,1.328
		c-0.033,0.119-0.096,0.354-0.126,0.474c1.411,0.02,2.825,0.079,4.236,0.096c2.603-0.089,4.944,1.384,7.564,1.275
		c0.01,0.205,0.036,0.613,0.05,0.818c-1.252,0.129-2.514,0.288-3.683,0.778c-2.186,0.96-4.62,0.593-6.935,0.752
		c-0.05,0.109-0.146,0.325-0.195,0.434c2.269,0.348,4.666-0.139,6.839,0.748c0.984,0.374,1.99,0.682,3.03,0.851
		c-0.04,0.182-0.126,0.546-0.169,0.732c-1.56,0.007-3.086,0.321-4.557,0.818c-2.182,0.775-4.524,0.238-6.769,0.57
		c0.46,0.546,1.205,0.354,1.825,0.414c1.696,0.063,3.461-0.152,5.07,0.517c1.07,0.437,2.206,0.642,3.341,0.808
		c-0.136,0.139-0.407,0.417-0.543,0.556c-1.464,0.189-2.961,0.245-4.361,0.772c-1.984,0.735-4.12,0.503-6.186,0.593
		c-0.431-0.073-0.748,0.156-0.99,0.474c1.775,0.136,3.563-0.036,5.332,0.185c1.46,0.298,2.868,0.815,4.335,1.116
		c-0.354,0.364-0.709,0.729-1.056,1.093c-1.083,0.02-2.186-0.06-3.239,0.238c-1.328,0.368-2.633,0.894-4.027,0.917
		c-1.364,0.096-2.749-0.063-4.097,0.152c-0.099,0.096-0.301,0.282-0.404,0.374c2.527,0.235,5.163-0.195,7.571,0.805
		c-2.053,0.722-4.252,0.46-6.378,0.669c-1.702,0.142-3.411,0.089-5.113,0.079C163.32,260.412,165.896,253.467,168.44,246.509
		L168.44,246.509z"/>
	<path style="fill:#D82B23;" d="M186.204,287.952c0.854,0.02,1.715,0.03,2.573,0.056c-1.457,3.322-3.1,6.557-4.636,9.839
		c-0.888,0.003-1.772,0.01-2.656,0.01C183.028,294.542,184.581,291.231,186.204,287.952L186.204,287.952z"/>
	<path style="fill:#D82B23;" d="M193.138,288.005c0.844-0.076,1.692-0.023,2.54-0.01c-0.242,0.593-0.497,1.179-0.745,1.768
		c-0.911,0.02-1.821,0.023-2.732,0.017C192.493,289.181,192.748,288.551,193.138,288.005L193.138,288.005z"/>
	<path style="fill:#D82B23;" d="M233.14,287.985c0.871-0.01,1.742-0.01,2.613-0.003c-0.212,0.566-0.378,1.166-0.735,1.662
		c-0.841,0.295-1.795,0.079-2.676,0.142C232.61,289.187,232.879,288.588,233.14,287.985L233.14,287.985z"/>
	<path style="fill:#D82B23;" d="M297.261,287.972c0.861,0.003,1.725,0.003,2.59,0.013c-1.457,3.332-3.057,6.6-4.65,9.872
		c-0.841-0.007-1.682-0.007-2.517-0.003C293.979,294.463,295.748,291.27,297.261,287.972L297.261,287.972z"/>
	<path style="fill:#D82B23;" d="M153.683,297.841c1.596-3.288,3.063-6.643,4.762-9.882c2.682,0.139,5.441-0.298,8.057,0.48
		c1.119,0.301,1.845,1.507,1.547,2.639c-0.606,3.583-3.931,6.352-7.498,6.66C158.27,297.947,155.971,297.821,153.683,297.841
		L153.683,297.841z"/>
	<path style="fill:#D82B23;" d="M270.93,287.969c1.003,0.007,2.007,0.013,3.014,0.017c-0.199,2.454-0.381,4.905-0.652,7.349
		c2.222-2.404,4.309-4.931,6.504-7.362c0.94,0,1.881,0.003,2.828,0.05c-2.838,3.434-6.103,6.498-9.077,9.819
		c-0.888,0.007-1.775,0.01-2.659,0.013C270.778,294.562,270.731,291.257,270.93,287.969L270.93,287.969z"/>
	<path style="fill:#FCFCFC;" d="M160.253,289.777c1.56,0.146,3.557-0.55,4.749,0.768c0.381,1.431-0.523,2.832-1.358,3.924
		c-1.553,1.821-4.176,1.629-6.339,1.646C158.17,293.949,159.286,291.896,160.253,289.777L160.253,289.777z"/>
	<path style="fill:#D82B23;" d="M170.834,293.042c1.715-2.302,4.891-3.166,7.62-2.487c0.649,0.195,1.262,0.662,1.497,1.318
		c0.215,1.027-0.222,2.033-0.669,2.934c-2.249-0.017-4.497-0.066-6.743,0.007c-0.003,0.338-0.01,1.013-0.013,1.348
		c0.646,0.136,1.301,0.358,1.974,0.245c0.692-0.116,1.255-0.616,1.951-0.715c0.729-0.07,1.46-0.033,2.189,0
		c-1.258,1.692-3.457,2.259-5.458,2.461c-1.235,0.056-2.788-0.258-3.355-1.497C169.397,295.37,170.106,294.069,170.834,293.042
		L170.834,293.042z"/>
	<path style="fill:#D82B23;" d="M197.536,290.568c0.98-0.003,1.961-0.003,2.944,0c-0.113,1.732-0.252,3.464-0.407,5.193
		c1.517-1.722,3.05-3.428,4.514-5.196c0.921,0,1.841,0.007,2.765,0.036c-2.282,2.457-4.61,4.871-6.968,7.253
		c-0.911-0.003-1.821-0.007-2.729-0.007C197.622,295.42,197.576,292.996,197.536,290.568L197.536,290.568z"/>
	<path style="fill:#D82B23;" d="M208.144,294.284c1.527-3.424,6.166-4.987,9.461-3.236c0.811,1.182,0.387,2.613-0.281,3.746
		c-2.282-0.007-4.567-0.05-6.845,0.043c0.003,0.487,0.109,0.947,0.321,1.378c0.871,0.378,1.884,0.278,2.716-0.166
		c1-0.599,2.189-0.374,3.292-0.378c-1.553,1.739-3.938,2.533-6.229,2.444c-0.947-0.096-2.067-0.328-2.57-1.229
		C207.538,296.082,207.766,295.079,208.144,294.284L208.144,294.284z"/>
	<path style="fill:#D82B23;" d="M224.841,291.731c1.129-0.841,2.447-1.441,3.891-1.341c-0.301,0.642-0.606,1.285-0.904,1.931
		c-1.242,0.05-2.702,0.076-3.527,1.169c-0.888,1.358-1.447,2.901-2.159,4.352c-0.901,0.007-1.802,0.01-2.702,0.01
		c1.119-2.434,2.331-4.822,3.438-7.259c0.828-0.017,1.659-0.02,2.49-0.017C225.189,290.959,225.013,291.343,224.841,291.731
		L224.841,291.731z"/>
	<path style="fill:#D82B23;" d="M241.075,291.343c1.58-0.844,3.52-1.305,5.242-0.619c0.755,0.351,0.613,1.354,0.361,1.99
		c-0.732,1.729-1.656,3.368-2.351,5.113c-0.894,0.02-1.788,0.023-2.676,0.023c0.633-1.931,1.964-3.593,2.305-5.623
		c-1.212-0.169-2.739-0.285-3.56,0.828c-0.993,1.474-1.557,3.189-2.365,4.769c-0.894,0.023-1.792,0.026-2.682,0.03
		c1.099-2.447,2.295-4.848,3.424-7.282c0.858-0.007,1.715-0.007,2.58-0.007C241.284,290.757,241.145,291.148,241.075,291.343
		L241.075,291.343z"/>
	<path style="fill:#D82B23;" d="M249.232,295.032c0.881-3.053,4.212-5.216,7.365-4.59c0.576,0.053,0.957,0.523,1.398,0.851
		c0.119-0.242,0.245-0.48,0.371-0.719c0.835-0.003,1.672-0.003,2.51,0.013c-1.073,2.381-2.229,4.726-3.368,7.077
		c-0.646,1.407-1.931,2.514-3.467,2.798c-1.434,0.195-2.904,0.712-4.338,0.258c-0.884-0.139-1.758-0.483-2.186-1.325
		c0.086-0.215,0.262-0.646,0.348-0.864c0.878,0.007,1.755,0,2.636-0.017c0.123,0.169,0.364,0.513,0.484,0.682
		c0.954,0,1.994,0.166,2.871-0.321c0.672-0.48,1.037-1.249,1.487-1.917c-1.56,0.871-3.53,1.252-5.213,0.517
		C249.232,297.043,248.973,295.933,249.232,295.032L249.232,295.032z"/>
	<path style="fill:#D82B23;" d="M282.253,292.837c1.288-2.249,4.166-2.699,6.527-2.437c0.861,0.066,2.169,0.248,2.305,1.308
		c-0.368,2.169-2.298,3.868-2.172,6.143c-0.911-0.003-1.818,0-2.722,0.007c-0.036-0.185-0.109-0.56-0.146-0.748
		c-1.52,0.851-3.464,1.487-5.13,0.692c-0.788-0.338-0.709-1.374-0.348-2.004c0.593-1.374,2.129-1.924,3.5-2.143
		c1.384-0.202,2.802-0.285,4.123-0.791c0.026-0.192,0.079-0.573,0.103-0.762c-1.037-0.364-2.249-0.404-3.13,0.341
		C284.355,293.158,283.223,292.814,282.253,292.837L282.253,292.837z"/>
	<path style="fill:#D82B23;" d="M302.851,290.558c0.844,0.01,1.686,0.013,2.533,0.027c-0.639,1.908-1.805,3.593-2.322,5.547
		c1.361,0.576,3.179,0.205,3.908-1.169c0.765-1.444,1.407-2.947,2.126-4.411c0.881,0.013,1.768,0.017,2.656,0.027
		c-1.146,2.427-2.305,4.848-3.454,7.272c-0.854,0-1.709,0-2.56,0c0.06-0.192,0.179-0.573,0.238-0.762
		c-1.636,0.894-3.769,1.451-5.487,0.48c-0.649-0.636-0.215-1.563,0.073-2.259C301.321,293.724,302.066,292.131,302.851,290.558
		L302.851,290.558z"/>
	<path style="fill:#D82B23;" d="M313.217,295.681c0.616-4.401,6.491-6.845,10.107-4.388c0.368,1.199,0.126,2.471-0.573,3.5
		c-2.222-0.013-4.444-0.013-6.666-0.003c-0.023,0.474-0.03,0.947-0.03,1.424c0.931,0.182,1.954,0.384,2.832-0.106
		c1.007-0.633,2.216-0.467,3.345-0.424c-1.633,1.865-4.265,2.656-6.676,2.374C314.339,297.963,313.015,297.033,313.217,295.681
		L313.217,295.681z"/>
	<path style="fill:#D82B23;" d="M191.824,290.591c0.878-0.02,1.758-0.023,2.639-0.01c-1.056,2.454-2.278,4.835-3.398,7.266
		c-0.894,0-1.788,0.003-2.676,0.01C189.495,295.416,190.684,293.016,191.824,290.591L191.824,290.591z"/>
	<path style="fill:#D82B23;" d="M228.487,297.847c1.152-2.437,2.312-4.871,3.5-7.292c0.878,0.01,1.755,0.017,2.633,0.023
		c-1.146,2.424-2.325,4.835-3.441,7.272C230.282,297.854,229.385,297.854,228.487,297.847L228.487,297.847z"/>
	<path style="fill:#FCFCFC;" d="M173.235,293.426c0.891-1.354,2.673-1.868,4.11-1.06c-0.089,0.378-0.182,0.755-0.272,1.136
		C175.792,293.506,174.51,293.516,173.235,293.426L173.235,293.426z"/>
	<path style="fill:#FCFCFC;" d="M211.227,293.446c0.844-1.017,2.305-1.908,3.63-1.288c0.603,0.053,0.695,0.921,0.275,1.265
		C213.836,293.602,212.525,293.469,211.227,293.446L211.227,293.446z"/>
	<path style="fill:#FCFCFC;" d="M251.957,295.668c-0.096-2.298,2.507-4.527,4.696-3.322
		C257.62,294.764,254.007,297.377,251.957,295.668L251.957,295.668z"/>
	<path style="fill:#FCFCFC;" d="M316.754,293.443c0.765-1.129,2.378-1.934,3.669-1.235c0.57,0.192,0.252,0.838,0.301,1.278
		C319.396,293.489,318.072,293.526,316.754,293.443L316.754,293.443z"/>
	<path style="fill:#FCFCFC;" d="M283.842,295.112c1.186-0.401,2.431-0.576,3.659-0.795c-0.659,1.709-2.57,2.716-4.342,2.113
		C282.991,295.88,283.302,295.294,283.842,295.112L283.842,295.112z"/>
</g>
</svg>
