<svg id="Layer_1" data-name="Layer 1" xmlns="http://www.w3.org/2000/svg" viewBox="0 0 638 184.65"><defs><style>.cls-1{fill:#312280;}.cls-2{fill:#ea6214;}</style></defs><title>FedEx Logo Vector</title><path class="cls-1" d="M181.08,407.8c35.21-.24,70.42-.06,105.64-.09q.21,20,0,40-28.89.18-57.8,0c-.14,8.32-.09,16.63,0,24.94,17.73-.12,35.45,0,53.19-.06.07,7.35,0,14.69,0,22a75.38,75.38,0,0,1,14.62-16,65,65,0,0,1,32-12.47c11.47-.66,23.32-.84,34.2,3.37,13.9,4.53,25.45,15,32.14,27.91a110,110,0,0,1,4.82,11.08c4.67-15.35,15.31-29,29.64-36.42a57.51,57.51,0,0,1,42.2-3.58c6.93,2.19,12.86,6.55,17.82,11.78.07-24.22,0-48.42,0-72.64,14,.06,28.07-.12,42.1.12-.32,34.53,0,69.07-.14,103.6.06,24.68-.09,49.36.08,74-13.82.44-27.64.18-41.46.17-.08-3.86-.11-7.72-.07-11.57l-.35.52c-6.35,8.33-15.27,15-25.69,17a54.5,54.5,0,0,1-38.05-7.61c-16-10-26.59-27.74-28.63-46.39-26.11-.08-52.21,0-78.31-.06-1.46.1-3.05-.16-4.38.54a25.66,25.66,0,0,0,11.07,19.26c7.23,5,17,5.23,25,1.88,3.49-1.85,6-5.07,8.44-8,13.57.18,27.16-.08,40.73.09-5.4,14.35-15.71,27.28-29.72,34-13,6.36-28.05,7.72-42.27,5.93-16.74-2.21-32.64-11.18-42.56-24.94a61.55,61.55,0,0,1-11.72-37.58c-.24-5.87.88-11.65,1.57-17.45-15.41-.05-30.83,0-46.24,0q-.09,37.41,0,74.83c-15.93.25-31.87,0-47.81.12Q181,496.94,181.08,407.8ZM325.61,497c-4.93,3.28-7.7,8.72-9.51,14.18,14.95.09,29.88.41,44.82,0-1.47-4.36-3-9-6.57-12.16C346.71,492,334.12,490.9,325.61,497ZM459,498.83c-10.49,2.53-17.21,12.81-18.6,23.05-2.37,11.09.72,23.81,9.55,31.32,8.42,7.3,22.27,6.9,30.35-.74,7.58-8,9-19.76,7.64-30.22-1.29-7.11-3.77-14.65-9.62-19.33C473,498.54,465.63,497.47,459,498.83Z" transform="translate(-181 -407.67)"/><path class="cls-2" d="M805.11,563c6.67-2,14.86,4.15,13.8,11.37,1.25,8.79-10.31,14.13-17.14,9.69C792.94,579.93,795.37,564.48,805.11,563Zm.11,2.34c-3.71,1.12-7.2,4.92-6.67,9-.51,6.64,7.88,11.31,13.49,8.15,5.92-2.67,6.63-12.08,1.35-15.75C811,565.2,808,565.08,805.22,565.37Z" transform="translate(-181 -407.67)"/><path class="cls-2" d="M803.1,567.25c3,.1,6.22-.6,8.95.89a111,111,0,0,0,.54,12l-1,2.12c-1.56-2.76-2.19-6.2-5-8.06-.68,2.48-1.26,5-1.92,7.49C801.82,577.47,803.8,572,803.1,567.25Zm2.87,2.61c0,1.08.09,2.17.14,3.27,1-.09,2-.16,3-.23.12-1,.24-2,.38-3Z" transform="translate(-181 -407.67)"/><path class="cls-2" d="M775.61,575c-7.73-8.49-15.24-17.18-23.16-25.49-5.68-7.13-13-13-17.91-20.66,13.61-15.9,27.82-31.29,41.71-46.95a54.17,54.17,0,0,0,7.23-9c-16.14-.39-32.29-.06-48.43-.18-2.78-.46-4.37,2.2-6,3.94-6.4,7.85-13.34,15.21-19.92,22.9-9.41-8-16.48-18.34-25.55-26.64-5.07-.47-10.17-.08-15.25-.19-12.41.11-24.85-.22-37.26.19,5.76,7.91,13,14.6,19.24,22.14q14.24,15.84,28.41,31.76a12.94,12.94,0,0,1,1.7,2.6c-3.2,4.88-7.7,8.73-11.53,13.09-5.84,6.88-12.28,13.23-17.85,20.34-6.66,6.8-12.54,14.33-19.31,21-1.85-8.43-.6-17.14-1-25.69-.31-3.95.73-8.22-.53-12-18.07-.27-36.16-.16-54.23,0V511h-1.81c18.84,0,37.67.06,56.51,0,.24-12.75-.16-25.5.23-38.23-18.31,0-36.62-.08-54.93,0v-25c18.25,0,36.5.27,54.73-.18.06-13.27,0-26.52,0-39.79q-49.57.12-99.14,0c-.32,34.53,0,69.07-.14,103.6.06,24.68-.09,49.36.08,74-13.82.44-27.64.18-41.46.17-.08-3.86-.11-7.72-.07-11.57l-.35.52c-.27,3.81-.15,7.64-.09,11.45q95.1.15,190.18.1c2.53.4,4-1.92,5.43-3.54,6.82-8.36,14.3-16.14,21.4-24.25,8.21,8.61,16,17.66,23.86,26.54,1.41,1.6,3.68,1.17,5.58,1.28,16.22-.12,32.44.14,48.65-.11C782.17,581.94,778.71,578.59,775.61,575Z" transform="translate(-181 -407.67)"/></svg>